<?xml version="1.0" encoding="UTF-8" standalone="no"?>
<!-- Created with Inkscape (http://www.inkscape.org/) -->

<svg
   xmlns:dc="http://purl.org/dc/elements/1.1/"
   xmlns:cc="http://creativecommons.org/ns#"
   xmlns:rdf="http://www.w3.org/1999/02/22-rdf-syntax-ns#"
   xmlns:svg="http://www.w3.org/2000/svg"
   xmlns="http://www.w3.org/2000/svg"
   xmlns:sodipodi="http://sodipodi.sourceforge.net/DTD/sodipodi-0.dtd"
   xmlns:inkscape="http://www.inkscape.org/namespaces/inkscape"
   width="28.223143mm"
   height="28.222221mm"
   viewBox="0 0 100.00326 99.999997"
   id="svg4789"
   version="1.1"
   inkscape:version="0.91 r13725"
   sodipodi:docname="info.svg">
  <defs
     id="defs4791">
    <clipPath
       clipPathUnits="userSpaceOnUse"
       id="clipPath4717">
      <path
         d="m 1166.341,476.935 11.551,0 0,11.565 -11.551,0 0,-11.565 z"
         id="path4719"
         inkscape:connector-curvature="0" />
    </clipPath>
  </defs>
  <sodipodi:namedview
     id="base"
     pagecolor="#ffffff"
     bordercolor="#666666"
     borderopacity="1.0"
     inkscape:pageopacity="0.0"
     inkscape:pageshadow="2"
     inkscape:zoom="1.979899"
     inkscape:cx="-49.37721"
     inkscape:cy="16.007385"
     inkscape:document-units="px"
     inkscape:current-layer="layer1"
     showgrid="false"
     fit-margin-top="0"
     fit-margin-left="0"
     fit-margin-right="0"
     fit-margin-bottom="0"
     inkscape:window-width="1364"
     inkscape:window-height="726"
     inkscape:window-x="0"
     inkscape:window-y="20"
     inkscape:window-maximized="1" />
  <metadata
     id="metadata4794">
    <rdf:RDF>
      <cc:Work
         rdf:about="">
        <dc:format>image/svg+xml</dc:format>
        <dc:type
           rdf:resource="http://purl.org/dc/dcmitype/StillImage" />
        <dc:title></dc:title>
      </cc:Work>
    </rdf:RDF>
  </metadata>
  <g
     inkscape:label="Layer 1"
     inkscape:groupmode="layer"
     id="layer1"
     transform="translate(352.90231,-239.55013)">
    <g
       transform="matrix(8.6082278,0,0,-8.6082278,-10392.536,4445.1612)"
       id="g4713">
      <g
         id="g4715"
         clip-path="url(#clipPath4717)">
        <g
           id="g4721"
           transform="translate(1172.0781,484.5303)">
          <path
             d="m 0,0 c -0.432,0 -0.718,0.308 -0.71,0.686 -0.008,0.395 0.278,0.691 0.72,0.691 0.441,0 0.719,-0.296 0.728,-0.691 C 0.738,0.308 0.451,0 0,0 m 0.764,-4.281 c 0,-0.414 -0.335,-0.751 -0.75,-0.751 -0.414,0 -0.75,0.337 -0.75,0.751 l 0,3.001 c 0,0.414 0.336,0.75 0.75,0.75 0.415,0 0.75,-0.336 0.75,-0.75 l 0,-3.001 z M 4.08,2.285 c -2.244,2.245 -5.887,2.245 -8.132,0 -2.246,-2.246 -2.246,-5.888 0,-8.132 2.245,-2.246 5.888,-2.247 8.132,0 2.247,2.244 2.245,5.886 0,8.132"
             style="fill:#ffffff;fill-opacity:1;fill-rule:nonzero;stroke:none"
             id="path4723"
             inkscape:connector-curvature="0" />
        </g>
      </g>
    </g>
  </g>
</svg>
