<svg xmlns="http://www.w3.org/2000/svg" width="105mm" height="25mm" viewBox="0 0 372.04726 88.582677"><g stroke-miterlimit="10" fill="#af4248" stroke="#af4248" stroke-width="1.018"><path d="M238.938 36.623c13.21 0 23.826 11.324 23.826 24.652 0 13.564-10.615 24.888-23.826 24.888-13.21 0-23.825-11.323-23.825-24.888 0-13.327 10.615-24.652 23.825-24.652zm0 39.397c7.432 0 13.33-6.605 13.33-14.744 0-7.902-5.898-14.39-13.33-14.39-7.43 0-13.328 6.487-13.328 14.39 0 8.138 5.898 14.744 13.328 14.744zM274.56 4.66c0-1.18 1.063-2.242 2.24-2.242h6.843c1.18 0 2.24 1.062 2.24 2.24v34.56c1.063-.353 5.31-2.595 11.324-2.595 13.092 0 23.236 10.97 23.236 24.77 0 13.564-9.555 24.77-22.057 24.77-9.318 0-14.98-6.604-14.98-6.604l-.943 3.42c-.354 1.18-1.062 2.005-2.123 2.005h-3.54c-1.178 0-2.24-1.062-2.24-2.24V4.658zm22.41 71.36c7.55 0 12.504-6.724 12.504-14.626 0-8.02-5.544-14.51-13.446-14.51-6.133 0-10.262 2.714-10.262 2.714v19.345c.59 1.298 4.01 7.077 11.205 7.077zM329.525 78.85l2.477-4.6c.472-.943 1.77-1.297 2.95-.59 0 0 5.188 3.066 10.968 3.066 3.54 0 5.78-1.415 5.78-4.01 0-3.186-2.596-4.72-9.083-7.667-7.313-3.186-13.446-7.668-13.446-15.453 0-5.896 4.837-12.975 16.16-12.975 6.605 0 11.56 2.124 13.918 3.657 1.063.707 1.652 2.24.943 3.42l-2.122 4.01c-.59 1.062-2.123 1.416-3.066.943 0 0-5.19-2.477-9.672-2.477-4.01 0-5.308 1.77-5.308 3.54 0 3.065 2.948 4.362 7.55 6.368 8.61 3.773 15.687 7.43 15.687 16.277 0 7.314-6.96 13.8-17.457 13.8-7.903 0-13.094-2.83-15.57-4.835-.708-.47-1.18-1.532-.708-2.475z"/></g><g fill="#fff"><path d="M8.45 40.516c-.47-1.65 0-2.713 1.77-2.713h3.657c1.063 0 1.887.59 2.123 1.298l8.61 31.14h.118l13.328-32.437c.236-.59.943-1.18 2.006-1.18h.59c1.06 0 1.77.59 2.005 1.18l13.21 32.555h.118L64.478 39.1c.235-.707 1.06-1.297 2.004-1.297h3.657c1.768 0 2.24 1.063 1.768 2.713L59.053 84.984c-.236.708-1.063 1.18-2.006 1.18h-.59c-1.062 0-1.77-.59-2.005-1.18l-14.39-35.386-13.918 35.386c-.236.59-.944 1.18-2.006 1.18h-.59c-1.06 0-1.77-.472-2.005-1.18L8.45 40.516zM82.524 10.44c0-3.186 2.478-5.662 5.544-5.662 3.185 0 5.662 2.477 5.662 5.66 0 3.068-2.478 5.545-5.662 5.545-3.066 0-5.544-2.477-5.544-5.544zm1.652 29.605c0-1.18 1.062-2.242 2.24-2.242h3.657c1.18 0 2.24 1.063 2.24 2.242v42.697c0 1.18-1.06 2.24-2.24 2.24h-3.656c-1.18 0-2.24-1.06-2.24-2.24V40.045zM109.064 40.045c0-1.18 1.062-2.242 2.24-2.242h2.24c1.064 0 1.653.473 1.89 1.416l1.06 3.655s6.724-6.252 16.515-6.252c13.68 0 18.28 8.965 18.28 21.232v24.887c0 1.18-1.06 2.24-2.24 2.24h-3.774c-1.18 0-2.24-1.06-2.24-2.24V57.855c0-8.965-4.01-13.33-10.616-13.33-8.847 0-15.216 6.725-15.216 6.725v31.492c0 1.18-1.062 2.24-2.24 2.24h-3.657c-1.18 0-2.24-1.06-2.24-2.24V40.045zM187.147 36.623c12.385 0 21.35 9.2 21.35 21.586 0 .824-.118 2.358-.236 3.184-.117 1.18-1.06 2.005-2.123 2.005h-33.97c.473 7.9 7.432 15.333 15.806 15.333 4.954 0 8.965-1.888 11.678-3.54 1.65-.942 2.36-1.532 3.304-.235.707.944 1.297 1.77 2.005 2.713.824 1.064 1.297 1.77-.473 3.068-2.83 2.24-9.2 5.426-17.34 5.426-14.27 0-23.117-11.206-23.117-24.77 0-13.33 8.845-24.77 23.117-24.77zm13.21 20.17c-.354-6.84-6.016-12.975-13.21-12.975-7.903 0-14.036 5.662-14.862 12.975h28.072z"/></g></svg>