<svg xmlns="http://www.w3.org/2000/svg" width="108" height="63.967" viewBox="0 0 108 63.966618"><path d="M53.064 46.438c1.084-2.032 2.075-2.83 2.605-3.24 1.834-1.422 2.843-1.704 2.843-1.704l.264-1.5s-1.368.36-3.793 2.18C52.204 44.26 51.4 47.03 51.4 47.03s-1.674 4.14-.385 7.857c0 0 1.776 6.08 7.98 6.08v-1.182c-1.685.11-2.9-.636-2.9-.636-6.235-3.84-4.064-10.78-3.032-12.713z" fill="#8f303a"/><path d="M59.965 39.388l-.036.346s-1.044 4.095-1.26 6.234c-.228 2.23-.005 3.966.38 4.98.88 2.52 3.77 3.758 5.81 3.625 6.796-.442 6.724-6.25 6.624-7.298-.196-2.53-2.45-4.463-3.557-5.085-4.4-2.475-8.363-1.054-8.363-1.054l.23-1.354c4.657-.7 7.262.515 9.256 1.685 1.52.892 2.525 2.57 2.525 2.57 1.662 2.495.925 5.928.925 5.928s-.806 5.613-7.43 5.86c-5.3 0-7.07-3.214-7.414-4.67-1.07-3.957.69-10.174.69-10.174l.435-1.72" fill="#af4248"/><path d="M58.78 39.258c.442-2.136 1.855-10.08-.01-11.988-3.168-3.24-7.512-5.89-7.597-11.227-.013-.797.04-2.048.21-2.875.79-3.874 1.36-5.802 3.16-9.994.102-.232.557-.17.736-.156l.38.044 17.053 2.226c.483.08.62.227.666.61.537 4.38.504 6.43.417 10.145-.028 1.19-.306 2.713-.458 3.425-.86 4.02-5.074 5.788-10.1 8.265-2.235 1.1-1.873 2.978-3.31 11.975" fill="#af4248"/><path d="M58.895 25.764c-2.724-1.83-7.125-4.826-7.03-10.084.015-.79.187-2.054.31-2.786.344-2.023 1.08-5.237 2.766-9.082.116-.26.547-.16.924-.104l.213.027 15.65 2.043c.426.07 1.04.027 1.08.365.41 3.412.565 6.75.325 9.823-.056.742-.085 1.435-.23 2.213-.782 4.146-3.367 5.875-7.163 7.4 0 0-2.925 1.154-4.6.99-.915.026-2.244-.807-2.244-.807z" fill="#fff"/><path d="M61.037 21.252l.19-1.46c.05-.37.39-.63.76-.58l.453-3.443c-2.967-.903-9.496-3.157-9.66-3.013-.516.452-.412 3.762-.412 3.762.282 4.773 5.247 8.31 8.83 8.77l.42-3.28c-.37-.05-.63-.39-.58-.76zm1.49.2l.192-1.46c.046-.37-.215-.708-.584-.757l.453-3.442c3.1-.103 10.026-.61 10.11-.41.3.75-.577 3.74-.577 3.74-1.387 4.642-7.18 6.677-10.76 6.193l.404-3.283c.37.05.71-.21.76-.58z" fill="#af4248"/><path d="M71.32 26.63c3.46 0 6.238 2.965 6.238 6.455 0 3.55-2.78 6.515-6.237 6.515-3.456 0-6.235-2.964-6.235-6.515 0-3.49 2.78-6.454 6.237-6.454zm0 10.314c1.946 0 3.49-1.73 3.49-3.86 0-2.068-1.544-3.767-3.49-3.767-1.945 0-3.488 1.7-3.488 3.768 0 2.13 1.543 3.86 3.49 3.86zm9.327-18.68c0-.31.278-.588.586-.588h1.79c.31 0 .588.278.588.587v9.048c.28-.09 1.39-.68 2.966-.68 3.428 0 6.083 2.874 6.083 6.487 0 3.55-2.5 6.484-5.776 6.484-2.44 0-3.92-1.73-3.92-1.73l-.248.898c-.093.31-.278.525-.556.525h-.927c-.31 0-.587-.278-.587-.587V18.263zm5.866 18.68c1.976 0 3.273-1.76 3.273-3.83 0-2.1-1.45-3.797-3.52-3.797-1.605 0-2.686.71-2.686.71v5.065c.154.34 1.05 1.852 2.933 1.852zm8.522.74l.65-1.203c.123-.245.462-.34.77-.152 0 0 1.36.802 2.873.802.926 0 1.513-.37 1.513-1.05 0-.835-.68-1.236-2.376-2.008-1.914-.834-3.52-2.007-3.52-4.045 0-1.543 1.266-3.397 4.23-3.397 1.73 0 3.026.556 3.644.958.278.185.432.586.247.895l-.556 1.05c-.155.278-.557.37-.804.247 0 0-1.358-.648-2.532-.648-1.05 0-1.39.463-1.39.926 0 .803.773 1.142 1.977 1.667 2.255.988 4.108 1.946 4.108 4.26 0 1.916-1.822 3.614-4.57 3.614-2.07 0-3.428-.743-4.076-1.268-.185-.123-.308-.4-.185-.648z" stroke-width=".267" stroke-miterlimit="10" fill="#af4248" stroke="#af4248"/><path d="M4.045 27.72c-.124-.43 0-.71.463-.71h.957c.278 0 .494.155.556.34l2.256 8.153h.03l3.49-8.492c.062-.153.247-.307.525-.307h.156c.278 0 .463.154.525.31l3.46 8.52h.03l2.223-8.18c.062-.187.278-.34.525-.34h.957c.464 0 .587.277.464.71l-3.367 11.64c-.062.186-.278.31-.525.31h-.154c-.278 0-.463-.155-.525-.31L12.32 30.1l-3.642 9.26c-.06.155-.247.31-.525.31H8c-.28 0-.464-.124-.526-.31L4.046 27.72zm19.39-7.873c0-.834.65-1.482 1.45-1.482.836 0 1.485.648 1.485 1.482 0 .803-.65 1.45-1.483 1.45-.802 0-1.45-.647-1.45-1.45zm.434 7.75c0-.308.276-.586.584-.586h.957c.31 0 .588.28.588.59v11.176c0 .31-.28.587-.588.587h-.957c-.31 0-.586-.278-.586-.587V27.598zm6.514 0c0-.31.278-.586.587-.586h.588c.278 0 .433.126.494.37l.28.96s1.758-1.64 4.318-1.64c3.582 0 4.786 2.347 4.786 5.558v6.515c0 .31-.278.587-.586.587h-.988c-.31 0-.587-.278-.587-.587V32.26c0-2.347-1.05-3.49-2.78-3.49-2.315 0-3.982 1.76-3.982 1.76v8.245c0 .31-.278.587-.587.587h-.957c-.31 0-.587-.278-.587-.587V27.598zm20.44-.895c3.244 0 5.59 2.41 5.59 5.65 0 .217-.03.618-.06.835-.03.308-.28.525-.557.525h-8.893c.124 2.068 1.945 4.014 4.138 4.014 1.297 0 2.347-.494 3.057-.927.43-.25.616-.403.862-.063.186.247.34.463.525.71.216.278.34.463-.123.803-.74.587-2.41 1.42-4.54 1.42-3.736 0-6.05-2.932-6.05-6.483-.002-3.49 2.314-6.485 6.05-6.485zm3.46 5.28c-.093-1.79-1.575-3.397-3.46-3.397-2.07 0-3.673 1.483-3.89 3.397h7.35z" fill="#fff"/></svg>