<?xml version="1.0" encoding="UTF-8" standalone="no"?>
<!-- Generator: Adobe Illustrator 16.0.0, SVG Export Plug-In . SVG Version: 6.00 Build 0)  -->

<svg
   xmlns:dc="http://purl.org/dc/elements/1.1/"
   xmlns:cc="http://creativecommons.org/ns#"
   xmlns:rdf="http://www.w3.org/1999/02/22-rdf-syntax-ns#"
   xmlns:svg="http://www.w3.org/2000/svg"
   xmlns="http://www.w3.org/2000/svg"
   xmlns:sodipodi="http://sodipodi.sourceforge.net/DTD/sodipodi-0.dtd"
   xmlns:inkscape="http://www.inkscape.org/namespaces/inkscape"
   version="1.1"
   id="Layer_1"
   x="0px"
   y="0px"
   width="722.34698"
   height="240.52451"
   viewBox="0 0 722.34697 240.52449"
   enable-background="new 0 0 841.89 595.28"
   xml:space="preserve"
   inkscape:version="0.91 r13725"
   sodipodi:docname="logo-wineobs.svg"><metadata
     id="metadata33"><rdf:RDF><cc:Work
         rdf:about=""><dc:format>image/svg+xml</dc:format><dc:type
           rdf:resource="http://purl.org/dc/dcmitype/StillImage" /><dc:title></dc:title></cc:Work></rdf:RDF></metadata><defs
     id="defs31" /><sodipodi:namedview
     pagecolor="#ffffff"
     bordercolor="#666666"
     borderopacity="1"
     objecttolerance="10"
     gridtolerance="10"
     guidetolerance="10"
     inkscape:pageopacity="0"
     inkscape:pageshadow="2"
     inkscape:window-width="1366"
     inkscape:window-height="768"
     id="namedview29"
     showgrid="false"
     fit-margin-top="0"
     fit-margin-left="0"
     fit-margin-right="0"
     fit-margin-bottom="0"
     inkscape:zoom="0.37178253"
     inkscape:cx="357.50901"
     inkscape:cy="114.7565"
     inkscape:window-x="0"
     inkscape:window-y="0"
     inkscape:window-maximized="0"
     inkscape:current-layer="Layer_1" /><text
     transform="scale(1.0069757,0.99307265)"
     font-size="24.8311"
     letter-spacing="10.848"
     id="text3"
     style="font-size:25.00431442px;font-family:DidotLTStd-Roman;letter-spacing:10.92367172;fill:#ffffff"
     x="221.63316"
     y="241.84827">WINE TOURS</text>
<line
     stroke-miterlimit="10"
     x1="25.563999"
     y1="233.62801"
     x2="199.564"
     y2="233.62801"
     id="line5"
     style="fill:none;stroke:#ffffff;stroke-miterlimit:10" /><line
     stroke-miterlimit="10"
     x1="522.56403"
     y1="233.62801"
     x2="696.56403"
     y2="233.62801"
     id="line7"
     style="fill:none;stroke:#ffffff;stroke-miterlimit:10" /><g
     id="g9"
     transform="translate(-63.436,-171.872)"><path
       d="m 63.436,198.56 c 1.607,-4.138 5.207,-6.21 10.798,-6.21 l 0.228,0 c 4.825,0 9.095,1.278 12.81,3.834 3.713,2.559 5.757,5.979 6.133,10.266 -3.75,19.402 -5.625,39.815 -5.625,61.245 0,3.461 0.047,6.919 0.148,10.378 0.297,18.724 1.939,35.867 4.925,51.431 0.56,3.574 1.15,7.297 1.763,11.172 0.607,3.873 1.017,6.461 1.224,7.762 0.207,1.305 0.347,1.955 0.422,1.955 1.34,0 2.645,-2.936 3.911,-8.805 1.044,-5.268 2.85,-15.975 5.419,-32.115 2.572,-16.143 5.197,-29.595 7.879,-40.359 2.682,-10.76 6.033,-33.33 10.057,-41.007 1.192,-2.406 3.28,-4.063 6.259,-4.967 1.416,-0.375 2.793,-0.565 4.136,-0.565 1.531,0 3.139,0.266 4.828,0.791 3.066,0.979 5.172,2.712 6.322,5.193 0.994,1.733 1.494,3.576 1.494,5.532 -0.229,5.418 -0.347,10.912 -0.347,16.481 -0.076,10.159 0.268,20.507 1.035,31.043 1.07,16.407 2.872,31.156 5.397,44.25 0.612,3.539 1.205,6.66 1.778,9.371 0.574,2.711 1.417,6.004 2.529,9.877 1.108,3.877 2.468,6.869 4.076,8.977 1.606,2.105 3.366,3.123 5.28,3.047 0.689,-0.227 1.147,-2.219 1.379,-5.979 0,-51.59 6.43,-98.667 19.291,-141.234 0.458,-1.352 1.224,-2.554 2.295,-3.609 1.839,-2.48 4.63,-4.247 8.382,-5.3 2.069,-0.602 4.172,-0.903 6.318,-0.903 1.605,0 3.21,0.189 4.818,0.565 4.9,1.129 7.352,3.122 7.352,5.982 0,0.828 -0.157,1.693 -0.462,2.596 -1.456,2.71 -2.891,6.417 -4.305,11.12 -1.415,4.703 -2.45,8.58 -3.099,11.626 -0.652,3.049 -1.627,8.185 -2.929,15.408 -1.302,7.225 -2.106,11.556 -2.411,12.982 -0.845,4.29 -2.796,15.222 -5.856,32.793 -3.064,17.575 -5.551,30.614 -7.465,39.114 -1.836,9.109 -4.21,16.709 -7.117,22.805 -1.684,2.863 -3.694,5.008 -6.029,6.436 -2.337,1.43 -5.341,2.371 -9.015,2.822 -3.212,0 -5.737,-1.129 -7.575,-3.387 -8.654,-9.635 -14.509,-27.695 -17.57,-54.189 -0.997,-9.405 -1.878,-27.429 -2.639,-54.071 l 0,-7.79 -0.462,-3.273 c -0.461,0 -1.456,3.087 -2.992,9.258 -0.536,2.107 -3.701,14.506 -9.493,37.195 -5.79,22.691 -10.186,52.541 -13.175,62.853 -1.382,4.061 -4.356,7.357 -8.92,9.875 -4.566,2.523 -9.457,3.781 -14.675,3.781 -0.383,0 -0.729,0 -1.036,0 -5.53,0 -8.828,-1.766 -9.888,-5.303 -1.59,-4.441 -2.783,-10.541 -3.577,-18.301 -0.793,-7.762 -1.526,-14.959 -2.207,-21.592 -0.677,-6.635 -1.501,-14.227 -2.475,-22.771 0.036,-0.676 0.033,-1.181 -0.001,-1.521 -0.037,-0.338 -0.081,-0.787 -0.137,-1.351 -0.059,-0.561 -0.09,-1.07 -0.09,-1.52 L 69.175,269.337 C 68.549,253.46 67.418,235.021 65.778,214.024 65.077,204.769 64.294,199.615 63.436,198.56 Z"
       id="path11"
       inkscape:connector-curvature="0"
       style="fill:#ffffff" /><path
       d="m 284.01,346.887 c 0,-4.814 0.258,-30.633 0.785,-36.77 0.524,-6.131 1.012,-10.986 1.466,-14.56 0.452,-3.574 1.224,-9.124 2.303,-16.65 1.081,-7.526 1.727,-11.965 1.937,-13.32 0.419,-3.086 0.628,-5.758 0.628,-8.016 0,-4.705 -0.958,-7.73 -2.869,-9.074 2.369,-3.81 6.238,-5.714 11.596,-5.714 2.373,0 4.304,0.655 5.796,1.966 1.495,1.312 2.585,3.239 3.275,5.783 0.686,2.548 1.126,4.851 1.321,6.91 0.188,2.061 0.322,4.699 0.401,7.917 0.074,1.959 0.191,4.874 0.343,8.749 0.155,3.878 0.269,6.791 0.346,8.749 1.753,-6.525 4.98,-13.185 9.684,-19.976 4.697,-6.788 9.607,-11.495 14.727,-14.123 2.751,-1.5 5.196,-2.25 7.334,-2.25 8.997,0 13.496,12.682 13.496,38.042 0,7.829 -0.424,16.86 -1.265,27.092 -0.151,2.336 -0.574,7 -1.261,13.998 -0.077,0.754 -0.328,2.652 -0.746,5.701 -0.425,3.047 -0.787,5.91 -1.09,8.58 -0.309,2.672 -0.578,5.512 -0.805,8.521 -0.156,1.506 -0.214,2.861 -0.175,4.064 0.038,1.205 0.097,2.258 0.175,3.16 0.227,1.881 0.688,2.898 1.377,3.049 0.306,0.074 0.646,0.113 1.033,0.113 2.828,0 6.505,-3.049 11.025,-9.143 10.714,-14.676 20.436,-31.533 29.161,-50.574 1.147,-0.677 2.333,-1.015 3.56,-1.015 0.994,-0.227 2.297,0.338 3.903,1.691 -4.286,9.123 -9.454,19.375 -15.499,30.76 -5.054,9.123 -10.757,17.527 -17.111,25.217 -5.282,6.332 -10.293,9.498 -15.039,9.498 -7.392,0 -12.944,-5.096 -16.67,-15.285 -1.975,-5.963 -2.963,-13.211 -2.963,-21.742 0,-1.578 0,-3.197 0,-4.854 0,-15.727 1.582,-34.242 4.753,-55.54 0.81,-5.268 1.217,-9.218 1.217,-11.853 0,-2.331 -0.296,-3.537 -0.885,-3.613 -0.134,0 -0.231,0 -0.296,0 -2.523,0 -5.469,2.071 -8.833,6.207 -8.03,9.786 -14.067,20.737 -18.12,32.853 -0.154,1.881 -0.229,5.042 -0.229,9.483 -0.687,13.395 -1.227,42.354 -1.609,46.191 -0.458,4.967 -1.031,8.129 -1.723,9.484 -5.51,5.797 -10.372,8.691 -14.581,8.691 -3.792,0 -6.942,-2.746 -9.446,-8.238 -0.284,-4.364 -0.427,-7.749 -0.427,-10.159 z"
       id="path13"
       inkscape:connector-curvature="0"
       style="fill:#ffffff" /><path
       d="m 389.066,309.029 0,-3.498 c 0.461,-10.01 2.396,-19.491 5.801,-28.448 3.402,-8.955 7.979,-15.652 13.722,-20.094 4.437,-3.687 9.374,-5.53 14.812,-5.53 6.199,0 11.214,2.352 15.041,7.054 3.827,4.704 5.817,10.368 5.971,16.99 0,0.225 0,0.45 0,0.676 0,17.236 -8.806,29.956 -26.408,38.157 l 0,0.225 c -0.308,2.563 -0.463,5.232 -0.463,8.014 0,1.885 0.076,3.803 0.234,5.758 0.305,4.82 0.841,9.297 1.604,13.436 0.765,4.141 2.24,7.732 4.422,10.781 2.181,3.045 4.881,4.947 8.096,5.699 0.919,0.225 1.836,0.34 2.755,0.34 4.668,0 9.797,-2.561 15.384,-7.678 6.51,-5.793 12.71,-12.85 18.603,-21.166 5.894,-8.314 10.909,-16.914 15.04,-25.793 1.074,-0.904 2.144,-1.357 3.216,-1.357 1.303,0 2.645,0.678 4.021,2.033 -1.838,4.217 -4.097,8.768 -6.774,13.66 -9.341,16.408 -19.445,29.125 -30.311,38.154 -6.588,5.346 -13.437,8.016 -20.558,8.016 -8.263,0 -15.423,-2.145 -21.47,-6.436 -6.05,-4.289 -10.871,-9.668 -14.468,-16.143 -5.512,-9.709 -8.27,-20.658 -8.27,-32.85 z m 29.399,-0.904 c 5.583,-3.385 10.391,-7.898 14.408,-13.546 4.019,-5.641 6.065,-11.475 6.143,-17.495 0,-0.527 0,-1.016 0,-1.467 0,-6.698 -1.493,-10.349 -4.479,-10.951 -1.834,-0.451 -3.655,0.679 -5.452,3.386 -1.801,2.711 -3.329,6.267 -4.593,10.669 -1.263,4.403 -2.296,8.466 -3.101,12.191 -0.804,3.725 -1.437,7.133 -1.895,10.217 l -1.031,6.996 z"
       id="path15"
       inkscape:connector-curvature="0"
       style="fill:#ffffff" /><path
       d="m 497.922,291.739 c 0,-9.399 0.308,-17.411 0.922,-24.033 2.152,-34.451 10.814,-58.186 25.986,-71.198 6.741,-5.717 15.593,-8.576 26.553,-8.576 3.36,0 5.804,0.076 7.334,0.226 6.65,0.903 12.996,6.095 19.034,15.577 5.273,8.056 9.648,18.627 13.128,31.721 3.476,13.096 5.256,26.004 5.333,38.721 l 0,1.693 c 0,15.202 -1.837,29.276 -5.513,42.219 -3.676,12.943 -8.881,23.818 -15.616,32.625 -6.734,9.184 -15.27,13.883 -25.604,14.109 l -1.149,0 c -7.194,0 -13.568,-1.109 -19.117,-3.33 -5.548,-2.223 -10.145,-5.385 -13.776,-9.49 -3.638,-4.102 -6.584,-8.639 -8.844,-13.611 -2.257,-4.969 -4.113,-10.654 -5.568,-17.055 -1.914,-9.188 -2.868,-18.299 -2.868,-27.337 -0.159,-0.604 -0.235,-1.358 -0.235,-2.261 z m 28.132,-12.312 c 0,23.95 3.209,45.334 9.629,64.163 3.819,10.168 8.819,15.475 15.01,15.926 l 1.833,0 c 0.153,0 0.346,0 0.577,0 7.713,0 13.862,-4.479 18.447,-13.441 8.784,-17.996 13.179,-42.209 13.179,-72.634 0.152,-0.151 0.23,-0.375 0.23,-0.677 -0.691,-24.927 -5.082,-46.918 -13.18,-65.971 -3.974,-8.962 -8.175,-13.67 -12.604,-14.121 l -0.918,0 c -4.893,0 -9.663,4.03 -14.325,12.089 -5.427,9.788 -9.761,21.217 -13.008,34.282 -3.247,13.066 -4.87,26.528 -4.87,40.384 z"
       id="path17"
       inkscape:connector-curvature="0"
       style="fill:#ffffff" /><path
       d="m 603.216,182.485 0,-1.131 c 0.479,-2.934 1.934,-5.247 4.366,-6.941 2.435,-1.693 5.407,-2.541 8.92,-2.541 7.671,0 12.619,2.447 14.845,7.34 -0.076,1.805 -0.403,9.82 -0.977,24.044 -0.574,14.224 -0.995,24.197 -1.263,29.916 -0.271,5.718 -0.653,13.678 -1.154,23.874 -0.504,10.198 -1.07,18.87 -1.704,26.021 2.875,-12.418 8.058,-20.434 15.55,-24.046 3.552,-1.429 6.803,-2.104 9.757,-2.031 0.224,-0.073 0.416,-0.113 0.567,-0.113 3.176,0.153 6.185,1.094 9.021,2.821 2.836,1.734 5.259,3.728 7.263,5.985 2.002,2.257 3.761,4.741 5.275,7.45 3.104,5.796 5.186,12.416 6.244,19.866 0.604,4.592 0.888,8.976 0.854,13.15 -0.042,4.178 -0.328,8.186 -0.854,12.025 l -0.911,5.531 c 12.156,-9.633 23.939,-25.952 29.15,-37.09 1.529,-0.751 2.868,-1.128 4.019,-1.128 1.068,0 2.255,0.377 3.557,1.128 -8.576,18.213 -24.208,38.709 -40.703,49.62 -0.682,1.354 -1.061,2.184 -1.136,2.484 -5.229,11.516 -11.818,19.303 -19.771,23.367 -4.244,2.031 -7.578,3.049 -10.004,3.049 -2.568,0 -5.177,-0.945 -7.821,-2.822 -2.42,-1.732 -3.629,-3.689 -3.629,-5.871 0,-0.152 0,-0.34 0,-0.564 0.226,-1.432 1.247,-3.047 3.062,-4.854 3.023,-2.783 8.05,-6.02 15.079,-9.709 l 1.361,-0.678 c 2.566,-9.936 3.854,-19.152 3.854,-27.656 0,-3.912 -0.263,-7.637 -0.79,-11.176 -2.789,-16.933 -7.194,-26.941 -13.22,-30.029 -0.981,-0.523 -1.924,-0.789 -2.827,-0.789 -1.883,0.075 -3.651,1.242 -5.31,3.499 -2.412,3.463 -4.562,9.333 -6.444,17.611 -0.152,1.053 -0.229,3.197 -0.229,6.434 0.155,1.733 0.229,4.739 0.229,9.03 0.076,2.711 0.23,8.826 0.461,18.346 0.229,9.521 0.344,16.502 0.344,20.939 -1.047,3.461 -3.22,5.193 -6.515,5.193 -0.817,0 -1.711,-0.111 -2.676,-0.34 -4.611,-1.053 -7.25,-4.213 -7.918,-9.482 -2.909,-15.877 -4.365,-37.74 -4.365,-65.586 0,-1.354 0,-2.858 0,-4.517 0,-5.794 0.098,-13.3 0.289,-22.519 0.19,-9.218 0.286,-17.668 0.286,-25.343 0,-2.183 0,-4.328 0,-6.435 -0.08,-9.333 -0.527,-17.572 -1.336,-24.722 -0.487,-2.858 -1.177,-4.702 -2.066,-5.533 -0.491,-1.804 -0.73,-3.497 -0.73,-5.077 z m 36.891,172.113 c -1.1,0.619 -1.814,1.219 -2.158,1.801 -0.339,0.582 -0.32,1.143 0.061,1.686 1.058,1.084 2.061,1.648 3.001,1.688 0.945,0.037 1.928,-0.504 2.951,-1.621 1.018,-1.119 1.89,-2.293 2.604,-3.527 0.718,-1.234 1.416,-2.588 2.097,-4.053 -0.146,0.076 -0.941,0.416 -2.377,1.023 -1.439,0.607 -2.553,1.102 -3.348,1.492 -0.792,0.386 -1.739,0.89 -2.831,1.511 z"
       id="path19"
       inkscape:connector-curvature="0"
       style="fill:#ffffff" /><path
       d="m 691.516,258.806 0,-1.361 c 0,-5.662 2.026,-10.381 6.083,-14.155 3.597,-3.548 8.228,-5.926 13.895,-7.134 1.607,-0.452 3.101,-0.679 4.479,-0.679 3.213,0 6.503,0.994 9.872,2.982 4.974,3.901 7.653,9.141 8.038,15.718 -0.688,1.577 -2.338,2.645 -4.936,3.208 -2.604,0.562 -4.405,-0.17 -5.397,-2.197 0,-3.15 -0.479,-6.117 -1.437,-8.892 -0.957,-2.778 -2.431,-4.842 -4.418,-6.194 -0.689,-0.45 -1.455,-0.637 -2.297,-0.562 -1.609,0 -3.446,0.826 -5.512,2.475 -2.452,1.955 -3.866,4.992 -4.249,9.12 -0.08,0.679 -0.115,1.313 -0.115,1.915 0,3.304 0.84,6.23 2.526,8.781 1.532,2.253 3.252,4.316 5.164,6.192 3.142,2.776 8.366,6.398 15.675,10.865 7.311,4.464 12.344,7.786 15.099,9.961 6.737,5.18 11.368,10.398 13.895,15.65 0.23,-0.148 1.225,-0.748 2.984,-1.801 7.962,-4.578 13.932,-10.658 17.913,-18.24 1.38,-0.448 2.643,-0.673 3.789,-0.673 0.995,0 2.067,0.448 3.216,1.349 -3.6,8.633 -11.978,17.078 -25.145,25.332 1.298,4.279 1.95,8.482 1.95,12.611 0,5.477 -1.149,10.768 -3.443,15.873 -4.059,9.082 -9.763,15.873 -17.109,20.377 -5.588,3.826 -11.218,5.855 -16.88,6.08 l -1.147,0 c -5.129,-0.076 -9.684,-1.84 -13.662,-5.291 -2.374,-2.102 -3.56,-4.393 -3.56,-6.869 0,-1.729 0.572,-3.604 1.724,-5.631 3.517,-6.678 10.56,-14.221 21.123,-22.627 l 4.479,-3.49 c -0.458,-4.277 -1.646,-7.936 -3.558,-10.975 -1.915,-3.041 -4.978,-6.436 -9.188,-10.191 -3.98,-3.528 -7.231,-6.517 -9.757,-8.971 -2.526,-2.452 -5.381,-5.567 -8.555,-9.342 -3.178,-3.774 -5.762,-7.476 -7.753,-11.098 -2.297,-4.151 -3.56,-8.189 -3.786,-12.116 z m 21.47,98.719 c 1.148,1.199 2.448,1.502 3.902,0.902 1.455,-0.6 2.852,-1.541 4.19,-2.814 1.339,-1.277 2.659,-2.891 3.964,-4.84 1.3,-1.951 2.353,-3.699 3.157,-5.236 0.804,-1.539 1.434,-2.834 1.893,-3.885 1.377,-3.301 2.413,-6.789 3.103,-10.469 l -6.659,6.078 c -5.055,4.504 -8.884,8.48 -11.483,11.932 -2.066,2.627 -3.142,4.691 -3.214,6.195 0.072,0.901 0.458,1.612 1.147,2.137 z"
       id="path21"
       inkscape:connector-curvature="0"
       style="fill:#ffffff" /><g
       id="g23"><path
         d="m 241.486,227.091 c 2.911,0 5.271,-1.373 7.085,-4.12 1.81,-2.748 2.714,-5.773 2.714,-9.088 l 0,-0.677 c -0.017,-0.269 -0.058,-0.517 -0.093,-0.77 l 0.016,-0.003 c -0.009,-0.03 -0.02,-0.06 -0.026,-0.088 -0.129,-0.857 -0.353,-1.613 -0.686,-2.255 -4.335,-12.146 -14.279,-6.061 -14.279,-6.061 l 0.007,0.007 c -1.189,0.632 -2.36,1.462 -3.523,2.509 -2.921,2.634 -4.383,5.382 -4.383,8.24 0,2.483 1.464,5.156 4.391,8.015 2.927,2.864 5.853,4.291 8.777,4.291 z"
         id="path25"
         inkscape:connector-curvature="0"
         style="fill:#ffffff" /><path
         d="m 291.244,294.489 c -0.917,0 -1.873,0.227 -2.871,0.679 -1.148,2.336 -3.101,5.803 -5.855,10.403 -11.639,19.449 -20.478,33.244 -26.526,41.387 -5.587,7.463 -9.567,11.27 -11.938,11.42 l -0.118,0 c -2.293,0 -3.596,-3.164 -3.901,-9.496 -0.229,-2.563 -0.346,-5.316 -0.346,-8.256 0,-3.77 0.178,-7.877 0.53,-12.326 1.339,-26.762 3.841,-49.718 7.509,-68.865 0,-4.45 -2.293,-6.673 -6.876,-6.673 -3.166,0 -6.138,0.811 -8.911,2.432 -2.771,1.62 -4.514,3.45 -5.226,5.484 0.534,0.68 0.804,1.998 0.804,3.958 0,3.166 -0.651,7.989 -1.95,14.475 -4.058,17.969 -6.089,34.693 -6.089,50.181 l 0,2.256 c 0.162,4.66 0.613,8.814 1.36,12.461 0.747,3.647 1.968,7.029 3.664,10.148 1.692,3.119 4.079,5.604 7.15,7.443 3.07,1.84 6.709,2.912 10.905,3.213 l 0.69,0 c 2.758,0 6.202,-1.898 10.333,-5.693 8.575,-8.334 17.071,-19.473 25.491,-33.42 0.611,-1.055 1.818,-3.053 3.617,-5.994 1.798,-2.941 3.047,-5.012 3.732,-6.217 0.69,-1.209 1.682,-2.924 2.984,-5.146 1.302,-2.227 2.414,-4.279 3.33,-6.164 0.919,-1.883 1.838,-3.844 2.757,-5.88 -1.377,-1.21 -2.795,-1.81 -4.249,-1.81 z"
         id="path27"
         inkscape:connector-curvature="0"
         style="fill:#ffffff" /></g></g></svg>