<?xml version="1.0" encoding="UTF-8" standalone="no"?>
<svg
   xmlns:dc="http://purl.org/dc/elements/1.1/"
   xmlns:cc="http://creativecommons.org/ns#"
   xmlns:rdf="http://www.w3.org/1999/02/22-rdf-syntax-ns#"
   xmlns:svg="http://www.w3.org/2000/svg"
   xmlns="http://www.w3.org/2000/svg"
   xmlns:sodipodi="http://sodipodi.sourceforge.net/DTD/sodipodi-0.dtd"
   xmlns:inkscape="http://www.inkscape.org/namespaces/inkscape"
   viewBox="0 0 904.99996 305"
   height="305"
   width="905"
   xml:space="preserve"
   version="1.1"
   id="svg2"
   inkscape:version="0.91 r13725"
   sodipodi:docname="logo-wineobs.svg"><sodipodi:namedview
     pagecolor="#ffffff"
     bordercolor="#666666"
     borderopacity="1"
     objecttolerance="10"
     gridtolerance="10"
     guidetolerance="10"
     inkscape:pageopacity="0"
     inkscape:pageshadow="2"
     inkscape:window-width="1366"
     inkscape:window-height="768"
     id="namedview32"
     showgrid="false"
     inkscape:zoom="0.48911475"
     inkscape:cx="175.46895"
     inkscape:cy="141.71512"
     inkscape:window-x="0"
     inkscape:window-y="0"
     inkscape:window-maximized="0"
     inkscape:current-layer="svg2" /><metadata
     id="metadata8"><rdf:RDF><cc:Work
         rdf:about=""><dc:format>image/svg+xml</dc:format><dc:type
           rdf:resource="http://purl.org/dc/dcmitype/StillImage" /><dc:title /></cc:Work></rdf:RDF></metadata><defs
     id="defs6"><clipPath
       id="clipPath28"
       clipPathUnits="userSpaceOnUse"><path
         id="path30"
         d="m 0,595.28 841.89,0 L 841.89,0 0,0 0,595.28 Z" /></clipPath></defs><g
     transform="matrix(1.25,0,0,-1.25,0,305)"
     id="g10"
     style="fill:#ffffff"><text
       y="-0.35408932"
       x="225.3963"
       id="text12"
       style="font-variant:normal;font-weight:normal;font-stretch:normal;font-size:25.00464249px;font-family:'Didot LT Std';-inkscape-font-specification:DidotLTStd-Roman;writing-mode:lr-tb;fill:#ffffff;fill-opacity:1;fill-rule:nonzero;stroke:none"
       transform="scale(1.006989,-0.99305951)"><tspan
         id="tspan14"
         y="-0.35408932"
         x="225.3963 263.50339 284.45731 313.76276 342.6181 358.57108 386.6763 418.73224 448.96286 478.26828"
         style="fill:#ffffff">WINE TOURS</tspan></text>
<g
       transform="translate(274.99998,7.2757242)"
       id="g16"
       style="fill:#ffffff"><path
         id="path18"
         style="fill:#ffffff;fill-opacity:1;fill-rule:nonzero;stroke:none"
         d="M 0,0 174,0 0,0 Z" /></g><g
       transform="translate(274.99998,7.2757242)"
       id="g20"
       style="fill:#ffffff"><path
         id="path22"
         style="fill:#ffffff;fill-opacity:1;fill-rule:nonzero;stroke:none"
         d="M 0,0 174,0 0,0 Z" /></g><g
       transform="translate(-71.584274,-185.00478)"
       id="g24"
       style="fill:#ffffff"><g
         clip-path="url(#clipPath28)"
         id="g26"
         style="fill:#ffffff"><g
           transform="translate(72.4106,401.1997)"
           id="g32"
           style="fill:#ffffff"><path
             id="path34"
             style="fill:#ffffff;fill-opacity:1;fill-rule:nonzero;stroke:none"
             d="m 0,0 c 1.607,4.137 5.207,6.21 10.798,6.21 l 0.228,0 c 4.825,0 9.096,-1.278 12.81,-3.835 3.713,-2.558 5.757,-5.979 6.133,-10.265 -3.75,-19.402 -5.625,-39.815 -5.625,-61.245 0,-3.461 0.048,-6.919 0.149,-10.378 0.297,-18.724 1.939,-35.867 4.925,-51.432 0.56,-3.573 1.15,-7.297 1.763,-11.171 0.607,-3.874 1.017,-6.462 1.224,-7.761 0.207,-1.305 0.347,-1.956 0.422,-1.956 1.34,0 2.645,2.935 3.911,8.805 1.045,5.267 2.85,15.974 5.42,32.115 2.571,16.143 5.196,29.596 7.879,40.359 2.682,10.76 6.033,33.33 10.057,41.007 1.193,2.406 3.281,4.064 6.259,4.966 1.416,0.376 2.793,0.566 4.136,0.566 1.531,0 3.139,-0.266 4.827,-0.791 3.067,-0.979 5.172,-2.712 6.322,-5.193 0.994,-1.733 1.494,-3.576 1.494,-5.532 -0.229,-5.419 -0.346,-10.913 -0.346,-16.482 -0.076,-10.159 0.267,-20.507 1.035,-31.043 1.07,-16.407 2.871,-31.155 5.397,-44.249 0.612,-3.539 1.204,-6.661 1.778,-9.371 0.574,-2.711 1.417,-6.005 2.528,-9.878 1.109,-3.877 2.468,-6.868 4.076,-8.976 1.607,-2.106 3.366,-3.123 5.28,-3.047 0.689,0.227 1.147,2.219 1.379,5.979 0,51.59 6.43,98.667 19.291,141.233 0.458,1.352 1.224,2.554 2.295,3.61 1.839,2.48 4.63,4.247 8.383,5.3 2.069,0.601 4.171,0.903 6.317,0.903 1.605,0 3.211,-0.189 4.818,-0.565 4.901,-1.13 7.352,-3.122 7.352,-5.983 0,-0.828 -0.157,-1.693 -0.462,-2.595 -1.455,-2.711 -2.891,-6.417 -4.304,-11.12 -1.415,-4.704 -2.45,-8.581 -3.099,-11.627 -0.652,-3.049 -1.627,-8.184 -2.929,-15.408 -1.302,-7.225 -2.107,-11.555 -2.411,-12.983 -0.845,-4.289 -2.796,-15.221 -5.856,-32.792 -3.064,-17.575 -5.551,-30.614 -7.466,-39.115 -1.836,-9.108 -4.21,-16.708 -7.117,-22.804 -1.684,-2.863 -3.694,-5.007 -6.029,-6.435 -2.337,-1.43 -5.34,-2.372 -9.015,-2.823 -3.212,0 -5.737,1.13 -7.574,3.387 -8.654,9.634 -14.509,27.696 -17.57,54.189 -0.997,9.405 -1.878,27.43 -2.639,54.072 l 0,7.79 -0.462,3.273 c -0.462,0 -1.456,-3.087 -2.992,-9.258 -0.536,-2.108 -3.702,-14.506 -9.494,-37.195 -5.79,-22.691 -10.186,-52.541 -13.174,-62.853 -1.383,-4.061 -4.357,-7.357 -8.92,-9.876 -4.567,-2.523 -9.457,-3.781 -14.675,-3.781 l -1.036,0 c -5.53,0 -8.827,1.766 -9.888,5.304 -1.59,4.441 -2.783,10.541 -3.577,18.299 -0.793,7.762 -1.526,14.959 -2.206,21.593 -0.677,6.635 -1.501,14.226 -2.475,22.771 0.036,0.675 0.033,1.18 -10e-4,1.52 -0.037,0.338 -0.081,0.787 -0.137,1.351 -0.059,0.56 -0.09,1.07 -0.09,1.519 L 5.741,-70.78 C 5.115,-54.902 3.984,-36.463 2.344,-15.466 1.641,-6.209 0.858,-1.055 0,0" /></g><g
           transform="translate(292.9844,252.873)"
           id="g36"
           style="fill:#ffffff"><path
             id="path38"
             style="fill:#ffffff;fill-opacity:1;fill-rule:nonzero;stroke:none"
             d="m 0,0 c 0,4.813 0.258,30.633 0.785,36.769 0.524,6.13 1.012,10.986 1.466,14.56 0.452,3.574 1.224,9.124 2.303,16.651 1.081,7.526 1.726,11.965 1.937,13.32 0.419,3.086 0.628,5.758 0.628,8.016 0,4.705 -0.957,7.73 -2.869,9.074 2.37,3.809 6.238,5.714 11.596,5.714 2.373,0 4.304,-0.656 5.796,-1.966 1.495,-1.311 2.586,-3.239 3.275,-5.784 0.686,-2.547 1.126,-4.85 1.321,-6.909 0.188,-2.061 0.322,-4.7 0.401,-7.917 0.074,-1.959 0.191,-4.874 0.343,-8.75 0.156,-3.877 0.269,-6.79 0.346,-8.749 1.754,6.526 4.981,13.185 9.684,19.976 4.697,6.788 9.607,11.495 14.727,14.123 2.75,1.5 5.196,2.25 7.333,2.25 8.997,0 13.496,-12.681 13.496,-38.042 0,-7.829 -0.423,-16.859 -1.264,-27.093 -0.152,-2.335 -0.575,-6.999 -1.261,-13.997 -0.077,-0.755 -0.328,-2.652 -0.746,-5.702 -0.425,-3.047 -0.787,-5.909 -1.09,-8.58 -0.308,-2.672 -0.579,-5.512 -0.805,-8.521 -0.155,-1.506 -0.214,-2.862 -0.174,-4.065 0.038,-1.204 0.096,-2.257 0.174,-3.16 0.226,-1.881 0.687,-2.898 1.377,-3.048 0.306,-0.075 0.647,-0.113 1.034,-0.113 2.828,0 6.504,3.048 11.025,9.142 10.714,14.676 20.435,31.533 29.161,50.574 1.147,0.677 2.333,1.015 3.56,1.015 0.994,0.227 2.296,-0.338 3.903,-1.691 C 113.176,37.974 108.008,27.723 101.963,16.338 96.909,7.215 91.206,-1.189 84.852,-8.88 c -5.283,-6.332 -10.294,-9.498 -15.039,-9.498 -7.392,0 -12.945,5.096 -16.67,15.285 -1.975,5.963 -2.964,13.212 -2.964,21.742 l 0,4.854 c 0,15.727 1.582,34.242 4.754,55.54 0.809,5.268 1.216,9.218 1.216,11.853 0,2.331 -0.296,3.537 -0.884,3.613 l -0.297,0 c -2.523,0 -5.468,-2.071 -8.832,-6.207 C 38.106,78.516 32.068,67.565 28.016,55.449 27.862,53.568 27.787,50.407 27.787,45.967 27.1,32.571 26.56,3.612 26.178,-0.225 25.72,-5.192 25.146,-8.354 24.455,-9.71 c -5.51,-5.796 -10.372,-8.691 -14.581,-8.691 -3.791,0 -6.942,2.747 -9.446,8.239 C 0.143,-5.796 0,-2.411 0,0" /></g><g
           transform="translate(427.4395,291.6338)"
           id="g40"
           style="fill:#ffffff"><path
             id="path42"
             style="fill:#ffffff;fill-opacity:1;fill-rule:nonzero;stroke:none"
             d="m 0,0 c 5.583,3.385 10.391,7.899 14.408,13.547 4.019,5.64 6.066,11.474 6.143,17.495 l 0,1.467 c 0,6.699 -1.493,10.348 -4.48,10.951 -1.834,0.452 -3.655,-0.678 -5.452,-3.385 C 8.818,37.363 7.29,33.808 6.026,29.406 4.764,25.002 3.73,20.939 2.926,17.214 2.122,13.489 1.489,10.081 1.031,6.997 L 0,0 Z m -29.398,-0.904 0,3.499 c 0.461,10.009 2.395,19.49 5.8,28.447 3.403,8.955 7.979,15.653 13.722,20.094 4.437,3.686 9.374,5.531 14.812,5.531 6.199,0 11.213,-2.352 15.041,-7.054 3.827,-4.705 5.817,-10.368 5.97,-16.991 l 0,-0.676 C 25.947,14.71 17.142,1.991 -0.461,-6.21 l 0,-0.225 c -0.308,-2.562 -0.463,-5.232 -0.463,-8.014 0,-1.884 0.076,-3.803 0.235,-5.758 0.304,-4.819 0.84,-9.296 1.604,-13.436 0.765,-4.139 2.24,-7.732 4.422,-10.78 2.181,-3.046 4.881,-4.948 8.096,-5.7 0.919,-0.225 1.836,-0.339 2.754,-0.339 4.668,0 9.797,2.56 15.384,7.677 6.51,5.793 12.71,12.85 18.603,21.167 5.893,8.314 10.909,16.913 15.04,25.793 1.074,0.903 2.143,1.357 3.216,1.357 1.302,0 2.644,-0.678 4.02,-2.033 -1.838,-4.217 -4.096,-8.769 -6.774,-13.661 -9.341,-16.407 -19.446,-29.124 -30.311,-38.153 -6.588,-5.347 -13.436,-8.017 -20.557,-8.017 -8.263,0 -15.423,2.145 -21.47,6.436 -6.05,4.289 -10.871,9.668 -14.468,16.142 -5.511,9.709 -8.268,20.658 -8.268,32.85" /></g><g
           transform="translate(535.0283,320.3325)"
           id="g44"
           style="fill:#ffffff"><path
             id="path46"
             style="fill:#ffffff;fill-opacity:1;fill-rule:nonzero;stroke:none"
             d="m 0,0 c 0,-23.95 3.209,-45.335 9.629,-64.163 3.819,-10.168 8.819,-15.475 15.01,-15.926 l 1.833,0 0.577,0 c 7.713,0 13.862,4.478 18.447,13.441 8.784,17.997 13.179,42.21 13.179,72.635 0.152,0.151 0.23,0.375 0.23,0.677 -0.691,24.926 -5.082,46.918 -13.179,65.97 -3.974,8.963 -8.175,13.67 -12.605,14.122 l -0.918,0 c -4.892,0 -9.663,-4.03 -14.325,-12.089 C 12.451,64.878 8.117,53.45 4.87,40.385 1.623,27.318 0,13.856 0,0 m -28.132,-12.312 c 0,9.399 0.308,17.412 0.922,24.034 2.152,34.45 10.814,58.185 25.986,71.198 6.742,5.717 15.593,8.576 26.553,8.576 3.36,0 5.804,-0.076 7.334,-0.225 6.65,-0.904 12.996,-6.096 19.034,-15.578 5.274,-8.055 9.649,-18.627 13.128,-31.721 3.476,-13.096 5.256,-26.003 5.333,-38.721 l 0,-1.692 c 0,-15.203 -1.837,-29.277 -5.512,-42.22 C 60.97,-51.605 55.765,-62.48 49.029,-71.286 42.295,-80.469 33.76,-85.169 23.425,-85.396 l -1.15,0 c -7.194,0 -13.568,1.109 -19.117,3.331 -5.548,2.222 -10.144,5.385 -13.776,9.489 -3.638,4.103 -6.584,8.64 -8.844,13.612 -2.257,4.968 -4.113,10.655 -5.568,17.054 -1.914,9.188 -2.868,18.299 -2.868,27.338 -0.158,0.603 -0.234,1.357 -0.234,2.26" /></g><g
           transform="translate(649.082,245.1621)"
           id="g48"
           style="fill:#ffffff"><path
             id="path50"
             style="fill:#ffffff;fill-opacity:1;fill-rule:nonzero;stroke:none"
             d="m 0,0 c -1.1,-0.62 -1.814,-1.22 -2.158,-1.802 -0.339,-0.581 -0.321,-1.142 0.06,-1.684 1.058,-1.084 2.061,-1.649 3.001,-1.689 0.946,-0.036 1.928,0.504 2.951,1.622 1.018,1.118 1.89,2.293 2.605,3.528 C 7.177,1.209 7.875,2.563 8.556,4.026 8.409,3.95 7.614,3.61 6.179,3.003 4.739,2.396 3.626,1.901 2.831,1.511 2.038,1.124 1.092,0.621 0,0 m -36.892,172.112 0,1.131 c 0.479,2.934 1.934,5.248 4.367,6.942 2.434,1.693 5.407,2.541 8.92,2.541 7.67,0 12.619,-2.447 14.844,-7.34 -0.076,-1.805 -0.403,-9.82 -0.976,-24.044 -0.574,-14.223 -0.995,-24.197 -1.263,-29.916 -0.271,-5.718 -0.653,-13.678 -1.154,-23.874 -0.504,-10.198 -1.071,-18.87 -1.704,-26.021 2.875,12.419 8.057,20.434 15.549,24.046 3.552,1.429 6.803,2.105 9.757,2.031 0.224,0.074 0.416,0.114 0.568,0.114 3.175,-0.154 6.184,-1.094 9.021,-2.822 2.836,-1.733 5.259,-3.727 7.263,-5.985 2.002,-2.257 3.761,-4.741 5.275,-7.45 3.105,-5.796 5.186,-12.416 6.244,-19.866 0.605,-4.592 0.888,-8.976 0.854,-13.151 -0.042,-4.177 -0.328,-8.184 -0.854,-12.024 l -0.911,-5.531 c 12.156,9.632 23.94,25.951 29.151,37.089 1.529,0.751 2.868,1.128 4.018,1.128 1.069,0 2.255,-0.377 3.557,-1.128 C 67.058,49.77 51.426,29.272 34.931,18.362 34.249,17.009 33.87,16.179 33.795,15.879 28.565,4.363 21.977,-3.424 14.023,-7.489 9.779,-9.52 6.445,-10.537 4.02,-10.537 c -2.569,0 -5.177,0.944 -7.822,2.822 -2.42,1.733 -3.629,3.689 -3.629,5.871 l 0,0.564 c 0.226,1.431 1.247,3.047 3.062,4.854 3.023,2.783 8.05,6.019 15.079,9.709 l 1.361,0.677 c 2.567,9.936 3.854,19.152 3.854,27.657 0,3.912 -0.263,7.637 -0.79,11.176 -2.789,16.933 -7.195,26.941 -13.22,30.029 -0.981,0.523 -1.924,0.788 -2.827,0.788 -1.883,-0.075 -3.651,-1.241 -5.31,-3.498 -2.412,-3.464 -4.561,-9.334 -6.444,-17.612 -0.152,-1.053 -0.229,-3.197 -0.229,-6.434 0.156,-1.732 0.229,-4.739 0.229,-9.03 0.076,-2.71 0.23,-8.825 0.461,-18.345 0.228,-9.521 0.344,-16.502 0.344,-20.94 -1.047,-3.461 -3.22,-5.193 -6.515,-5.193 -0.817,0 -1.711,0.112 -2.676,0.339 -4.611,1.053 -7.25,4.214 -7.918,9.483 -2.909,15.877 -4.365,37.74 -4.365,65.587 l 0,4.516 c 0,5.794 0.098,13.3 0.289,22.519 0.191,9.218 0.286,17.668 0.286,25.343 l 0,6.434 c -0.08,9.333 -0.527,17.573 -1.336,24.722 -0.487,2.859 -1.176,4.703 -2.066,5.533 -0.49,1.805 -0.73,3.499 -0.73,5.078" /></g><g
           transform="translate(721.9609,242.2334)"
           id="g52"
           style="fill:#ffffff"><path
             id="path54"
             style="fill:#ffffff;fill-opacity:1;fill-rule:nonzero;stroke:none"
             d="m 0,0 c 1.148,-1.199 2.448,-1.501 3.902,-0.902 1.455,0.599 2.852,1.541 4.191,2.815 1.339,1.276 2.659,2.89 3.964,4.84 1.299,1.951 2.352,3.698 3.157,5.235 0.804,1.54 1.433,2.835 1.892,3.885 1.377,3.302 2.414,6.79 3.103,10.47 L 13.55,20.264 C 8.495,15.761 4.666,11.783 2.066,8.332 0,5.705 -1.075,3.641 -1.147,2.138 -1.075,1.237 -0.689,0.525 0,0 m -21.471,98.72 0,1.362 c 0,5.661 2.027,10.38 6.083,14.154 3.597,3.549 8.228,5.927 13.895,7.134 1.607,0.452 3.1,0.679 4.479,0.679 3.213,0 6.503,-0.994 9.872,-2.983 4.974,-3.901 7.654,-9.14 8.038,-15.717 -0.687,-1.578 -2.337,-2.645 -4.935,-3.208 -2.605,-0.562 -4.405,0.17 -5.398,2.197 0,3.151 -0.479,6.117 -1.436,8.891 -0.957,2.779 -2.431,4.843 -4.418,6.195 -0.689,0.45 -1.455,0.637 -2.297,0.562 -1.609,0 -3.446,-0.826 -5.512,-2.475 -2.452,-1.955 -3.866,-4.992 -4.249,-9.12 -0.08,-0.679 -0.115,-1.313 -0.115,-1.915 0,-3.304 0.84,-6.231 2.527,-8.782 1.532,-2.252 3.251,-4.316 5.164,-6.192 3.141,-2.776 8.366,-6.398 15.674,-10.865 7.311,-4.464 12.344,-7.786 15.099,-9.961 6.737,-5.18 11.368,-10.399 13.895,-15.651 0.23,0.15 1.224,0.749 2.984,1.801 7.962,4.578 13.932,10.658 17.913,18.24 1.38,0.449 2.643,0.673 3.789,0.673 0.995,0 2.067,-0.448 3.216,-1.348 -3.6,-8.633 -11.978,-17.078 -25.145,-25.332 1.298,-4.28 1.951,-8.483 1.951,-12.611 0,-5.476 -1.15,-10.768 -3.444,-15.873 C 42.101,9.493 36.396,2.702 29.05,-1.803 23.462,-5.629 17.832,-7.657 12.17,-7.883 l -1.148,0 c -5.128,0.076 -9.683,1.84 -13.662,5.292 -2.374,2.102 -3.559,4.393 -3.559,6.869 0,1.728 0.572,3.604 1.723,5.63 3.517,6.679 10.56,14.221 21.123,22.627 l 4.479,3.49 c -0.458,4.279 -1.646,7.936 -3.558,10.976 -1.915,3.041 -4.977,6.436 -9.188,10.19 -3.981,3.529 -7.232,6.518 -9.757,8.972 -2.526,2.452 -5.381,5.567 -8.555,9.342 -3.177,3.775 -5.761,7.475 -7.753,11.098 -2.296,4.152 -3.559,8.19 -3.786,12.117" /></g><g
           transform="translate(250.4604,372.668)"
           id="g56"
           style="fill:#ffffff"><path
             id="path58"
             style="fill:#ffffff;fill-opacity:1;fill-rule:nonzero;stroke:none"
             d="m 0,0 c 2.911,0 5.271,1.373 7.085,4.121 1.81,2.747 2.714,5.773 2.714,9.087 l 0,0.677 c -0.016,0.269 -0.057,0.517 -0.093,0.769 l 0.016,0.003 C 9.713,14.688 9.703,14.717 9.696,14.745 9.566,15.603 9.343,16.359 9.01,17 4.675,29.146 -5.269,23.061 -5.269,23.061 l 0.007,-0.007 c -1.189,-0.632 -2.36,-1.462 -3.523,-2.509 -2.921,-2.634 -4.382,-5.381 -4.382,-8.24 0,-2.483 1.463,-5.156 4.391,-8.014 C -5.85,1.428 -2.924,0 0,0" /></g><g
           transform="translate(300.2183,305.2705)"
           id="g60"
           style="fill:#ffffff"><path
             id="path62"
             style="fill:#ffffff;fill-opacity:1;fill-rule:nonzero;stroke:none"
             d="m 0,0 c -0.917,0 -1.873,-0.227 -2.871,-0.679 -1.148,-2.336 -3.1,-5.803 -5.855,-10.403 -11.639,-19.448 -20.478,-33.244 -26.526,-41.387 -5.587,-7.462 -9.567,-11.268 -11.939,-11.42 l -0.118,0 c -2.293,0 -3.595,3.164 -3.901,9.497 -0.229,2.563 -0.346,5.316 -0.346,8.255 0,3.771 0.178,7.877 0.53,12.326 1.339,26.762 3.84,49.72 7.509,68.866 0,4.45 -2.294,6.673 -6.877,6.673 -3.166,0 -6.138,-0.811 -8.91,-2.432 -2.772,-1.62 -4.514,-3.45 -5.226,-5.484 0.534,-0.68 0.804,-1.999 0.804,-3.958 0,-3.167 -0.651,-7.99 -1.95,-14.475 -4.058,-17.969 -6.089,-34.693 -6.089,-50.181 l 0,-2.257 c 0.161,-4.66 0.613,-8.813 1.36,-12.46 0.748,-3.647 1.968,-7.029 3.664,-10.149 1.692,-3.119 4.079,-5.603 7.151,-7.442 3.069,-1.841 6.709,-2.912 10.904,-3.213 l 0.69,0 c 2.758,0 6.202,1.898 10.333,5.692 8.575,8.334 17.071,19.474 25.491,33.42 0.611,1.056 1.818,3.054 3.617,5.995 1.799,2.941 3.047,5.011 3.732,6.217 0.69,1.208 1.682,2.923 2.985,5.146 1.302,2.226 2.413,4.28 3.33,6.164 0.919,1.883 1.838,3.844 2.757,5.88 C 2.872,-0.601 1.454,0 0,0" /></g></g></g></g></svg>