<svg xmlns="http://www.w3.org/2000/svg" width="200" height="185.579" viewBox="0 0 200 185.57917"><path d="M163.59 41.473C163.59 18.625 135.2 0 100.183 0c-35.02 0-63.407 18.625-63.407 41.473 0 .59-.007 2.22-.007 2.428 0 24.24 24.81 43.87 63.405 43.87 38.83 0 63.415-19.626 63.415-43.866v-2.43" fill="#2a3c8e"/><path d="M161.162 41.452c0 21.54-27.296 39.002-60.968 39.002-33.672 0-60.968-17.463-60.968-39.002 0-21.54 27.296-39.004 60.968-39.004 33.672 0 60.968 17.463 60.968 39.004" fill="#00adef"/><path d="M79.95 29.147c-.033.06-.64.69-.245 1.197.96 1.228 3.933 1.933 6.938 1.26 1.79-.403 4.084-2.227 6.305-3.99 2.41-1.913 4.796-3.827 7.197-4.59 2.543-.81 4.172-.462 5.248-.137 1.182.353 2.57 1.13 4.784 2.792 4.173 3.135 20.946 17.777 23.845 20.308 2.333-1.053 12.708-5.52 26.805-8.626-1.225-7.517-5.796-14.393-12.73-20.023-9.665 4.058-21.472 6.174-33.02.535-.06-.024-6.31-2.982-12.474-2.837-9.163.213-13.133 4.178-17.333 8.376l-5.32 5.733" fill="#fff"/><path d="M133.34 47.58c-.197-.175-19.723-17.26-24.148-20.585-2.56-1.92-3.983-2.41-5.478-2.6-.78-.102-1.854.042-2.606.248-2.057.56-4.75 2.36-7.138 4.254-2.473 1.97-4.806 3.825-6.97 4.31-2.765.62-6.14-.112-7.682-1.154-.623-.42-1.063-.904-1.274-1.398-.57-1.32.48-2.374.652-2.55l5.39-5.83c.625-.624 1.257-1.25 1.902-1.866-1.738.226-3.345.67-4.91 1.106-1.952.548-3.832 1.07-5.73 1.07-.793 0-5.043-.697-5.85-.915-4.877-1.335-9.156-2.634-15.55-5.62-7.66 5.704-12.783 12.834-14.264 20.687 1.1.292 2.874.82 3.62.985 17.336 3.855 22.735 7.825 23.715 8.654 1.06-1.18 2.59-1.926 4.296-1.926 1.92.003 3.648.965 4.698 2.455.993-.783 2.362-1.454 4.132-1.452.804 0 1.638.148 2.48.435 1.956.67 2.966 1.972 3.49 3.15.655-.295 1.462-.514 2.412-.51.933 0 1.904.212 2.883.634 3.197 1.373 3.695 4.512 3.405 6.88.227-.027.457-.038.69-.038 3.79.003 6.87 3.083 6.87 6.874 0 1.174-.3 2.277-.822 3.246 1.032.58 3.66 1.89 5.968 1.598 1.845-.233 2.545-.863 2.795-1.216.172-.245.353-.53.185-.733l-4.89-5.434s-.807-.763-.54-1.057c.275-.302.772.13 1.125.426 2.49 2.077 5.528 5.216 5.528 5.216.052.033.253.43 1.378.633.968.172 2.68.07 3.866-.904.3-.245.598-.552.85-.87-.02.017-.038.038-.056.044 1.25-1.6-.14-3.22-.14-3.22l-5.708-6.412s-.82-.756-.54-1.06c.248-.262.774.135 1.132.433 1.808 1.513 4.363 4.076 6.81 6.474.48.35 2.63 1.682 5.48-.19 1.73-1.134 2.076-2.527 2.028-3.578-.12-1.392-1.206-2.383-1.206-2.383l-7.8-7.843s-.825-.704-.534-1.06c.24-.3.774.132 1.124.425 2.485 2.08 9.21 8.247 9.21 8.247.098.068 2.422 1.723 5.295-.106 1.028-.656 1.683-1.647 1.74-2.797.096-1.995-1.31-3.18-1.31-3.18" fill="#fff"/><path d="M95.504 57.523c-1.21-.014-2.533.704-2.705.6-.098-.064.072-.55.185-.83.116-.28 1.71-5.07-2.173-6.736-2.972-1.277-4.788.16-5.412.807-.164.17-.238.157-.256-.06-.06-.862-.446-3.197-3.01-3.98-3.666-1.12-6.023 1.436-6.62 2.36-.27-2.09-2.034-3.71-4.198-3.712-2.35-.002-4.257 1.902-4.26 4.25 0 2.35 1.904 4.256 4.255 4.256 1.144.002 2.18-.454 2.943-1.188.025.022.034.063.022.145-.18 1.05-.51 4.875 3.495 6.432 1.606.623 2.97.16 4.104-.634.337-.238.392-.138.343.18-.144.98.04 3.087 2.99 4.284 2.247.913 3.576-.02 4.447-.825.378-.346.483-.29.5.244.108 2.846 2.473 5.105 5.343 5.107 2.958.003 5.356-2.387 5.356-5.345.002-2.957-2.392-5.323-5.35-5.355" fill="#fff"/><path d="M95.504 67.842c-2.68-.003-4.86-2.085-4.96-4.74-.006-.226-.03-.832-.54-.832-.21 0-.394.127-.605.317-.59.547-1.34 1.103-2.438 1.103-.496 0-1.036-.117-1.603-.35-2.833-1.146-2.872-3.09-2.756-3.872.03-.208.04-.426-.103-.594l-.172-.157h-.177c-.144 0-.292.06-.49.2-.82.576-1.605.854-2.403.854-.44 0-.89-.087-1.342-.26-3.727-1.45-3.433-4.968-3.25-6.026.026-.216-.027-.382-.164-.492l-.262-.217-.246.235c-.727.7-1.676 1.084-2.675 1.084-2.134-.003-3.872-1.736-3.87-3.872 0-2.135 1.74-3.868 3.875-3.865 1.93 0 3.57 1.45 3.817 3.377l.133 1.04.57-.88c.064-.103 1.628-2.468 4.503-2.465.547 0 1.11.087 1.68.262 2.293.7 2.68 2.78 2.74 3.644.04.504.4.53.47.53.198 0 .343-.127.448-.235.433-.45 1.374-1.2 2.848-1.2.675.002 1.393.16 2.133.48 3.644 1.562 1.99 6.19 1.97 6.24-.31.767-.324 1.105-.03 1.3l.143.07h.106c.166 0 .37-.072.707-.187.497-.17 1.244-.428 1.945-.427h.002c2.74.03 4.972 2.262 4.97 4.972-.002 2.74-2.233 4.964-4.973 4.964zm38.59-22.308c-6.014-5.25-19.915-17.334-23.68-20.16-2.152-1.62-3.62-2.472-4.906-2.857-.58-.174-1.38-.372-2.41-.374-.958 0-1.986.173-3.06.515-2.434.77-4.857 2.696-7.202 4.56l-.12.096c-2.185 1.736-4.443 3.532-6.15 3.913-.747.168-1.513.254-2.278.254-1.914-.002-3.632-.553-4.276-1.375-.107-.136-.04-.355.21-.672l.033-.04 5.292-5.705c4.143-4.144 8.058-8.057 17.07-8.264.148-.005.302-.007.45-.007 5.61.003 11.215 2.514 11.845 2.805 5.26 2.565 10.688 3.868 16.144 3.873 5.687 0 11.555-1.406 17.724-4.246-.69-.582-1.406-1.146-2.143-1.698-5.42 2.348-10.583 3.535-15.566 3.534-5.088-.004-10.17-1.226-15.107-3.634-.26-.124-6.45-3.044-12.893-3.047-.17 0-.34.003-.508.006-7.57.18-11.833 2.865-14.7 5.22-2.788.068-5.195.74-7.336 1.34-1.91.53-3.56.99-5.167.99-.665 0-1.858-.06-1.964-.066-1.85-.055-11.172-2.342-18.586-5.148-.757.535-1.485 1.088-2.194 1.653 7.745 3.174 17.17 5.63 20.147 5.822.826.054 1.71.148 2.59.15 1.97 0 3.933-.552 5.833-1.084 1.123-.315 2.363-.658 3.665-.908-.346.342-.693.69-1.042 1.037l-5.376 5.816c-.423.427-1.342 1.566-.735 2.97.24.566.73 1.11 1.412 1.57 1.28.86 3.575 1.445 5.706 1.447.807.002 1.574-.08 2.276-.238 2.254-.505 4.618-2.388 7.122-4.38 1.995-1.585 4.83-3.598 7-4.19.607-.164 1.352-.267 1.95-.267.18 0 .35.007.506.03 1.434.182 2.82.67 5.296 2.527 4.413 3.316 23.942 20.4 24.133 20.568.012.01 1.257 1.086 1.17 2.87-.046.996-.6 1.88-1.56 2.494-.833.53-1.693.798-2.562.798-1.306-.003-2.204-.613-2.264-.655-.07-.06-6.762-6.194-9.224-8.255-.392-.325-.773-.62-1.158-.62-.205 0-.388.09-.51.242-.388.478.046 1.14.556 1.575l7.816 7.856c.01.007.975.91 1.08 2.116.06 1.303-.56 2.39-1.855 3.24-.924.608-1.857.916-2.772.916-1.202 0-2.043-.546-2.23-.677l-1.12-1.103c-2.05-2.017-4.165-4.1-5.714-5.394-.378-.313-.78-.604-1.165-.604-.192 0-.362.07-.494.208-.176.196-.3.55.142 1.135.18.24.394.44.394.44l5.704 6.407c.047.057 1.175 1.397.128 2.732l-.2.257c-.172.187-.356.36-.53.51-.974.798-2.273.883-2.788.883-.276 0-.54-.024-.772-.066-.562-.1-.94-.257-1.124-.473l-.07-.073c-.31-.32-3.185-3.255-5.564-5.24-.313-.264-.705-.594-1.108-.594-.2 0-.38.078-.515.23-.472.515.236 1.286.534 1.568l4.865 5.365c-.006.046-.066.157-.184.326-.174.24-.764.832-2.53 1.052-.21.028-.43.04-.645.04-1.82 0-3.76-.884-4.76-1.413.454-.963.69-2.022.69-3.084.002-4.004-3.25-7.26-7.252-7.263-.085 0-.176.003-.26.006.13-1.828-.13-5.29-3.68-6.813-1.025-.443-2.044-.668-3.035-.668-.777 0-1.523.133-2.224.402-.736-1.43-1.958-2.473-3.553-3.016-.88-.306-1.757-.46-2.605-.46-1.478 0-2.84.436-4.054 1.3-1.166-1.448-2.923-2.305-4.774-2.305-1.62 0-3.18.648-4.334 1.792-1.514-1.157-7.52-4.97-23.597-8.622-.78-.178-2.566-.69-3.66-1.01-.18.87-.32 1.75-.41 2.64 0 0 2.964.708 3.546.84 16.423 3.647 21.85 7.44 22.767 8.157-.31.747-.472 1.552-.473 2.362-.003 3.393 2.756 6.157 6.152 6.16.38 0 .757-.034 1.128-.102.512 2.496 2.145 4.39 4.643 5.36.73.28 1.467.425 2.192.425.468 0 .94-.057 1.4-.175.46 1.17 1.5 2.63 3.818 3.573.815.328 1.627.5 2.418.5.646 0 1.277-.116 1.88-.336 1.11 2.707 3.756 4.5 6.706 4.5 1.955.003 3.832-.793 5.2-2.202 1.17.65 3.645 1.83 6.143 1.833.324 0 .627-.022.93-.06 2.48-.312 3.637-1.282 4.166-2.038.098-.13.184-.27.258-.417.586.17 1.23.307 1.968.308 1.355 0 2.657-.46 3.97-1.418 1.29-.93 2.21-2.268 2.343-3.406l.005-.05c.436.09.882.136 1.328.136 1.396 0 2.77-.434 4.08-1.294 2.53-1.658 2.967-3.825 2.926-5.242.443.09.895.14 1.344.14 1.31 0 2.596-.396 3.822-1.177 1.567-1.002 2.51-2.537 2.656-4.324.096-1.213-.204-2.437-.844-3.49 4.24-1.826 13.925-5.36 25.333-7.93-.067-.886-.195-1.76-.353-2.63-13.805 3.064-24.103 7.52-26.682 8.668M190.897 128.99c-1.112 1.474-2.7 2.21-4.778 2.21-2.073 0-3.67-.736-4.79-2.21-1.12-1.472-1.677-3.57-1.677-6.285 0-2.713.557-4.806 1.678-6.27 1.12-1.467 2.717-2.2 4.79-2.2 2.076 0 3.665.733 4.777 2.2 1.108 1.464 1.667 3.557 1.667 6.27 0 2.716-.56 4.813-1.667 6.286zm5.67-16.447c-2.288-2.87-5.762-4.3-10.426-4.3-4.655 0-8.13 1.43-10.418 4.3-2.29 2.864-3.436 6.252-3.436 10.162 0 3.98 1.145 7.38 3.436 10.207 2.287 2.823 5.763 4.235 10.42 4.235 4.663 0 8.137-1.412 10.425-4.235 2.29-2.828 3.433-6.228 3.433-10.207 0-3.91-1.142-7.298-3.433-10.162M134.467 125.643c-.047 2.38-.73 4.017-2.038 4.917-1.31.897-2.74 1.35-4.292 1.35-.984 0-1.814-.275-2.5-.813-.683-.54-1.023-1.42-1.023-2.635 0-1.363.558-2.37 1.68-3.02.663-.38 1.752-.707 3.268-.968l1.62-.3c.808-.153 1.445-.317 1.907-.49.468-.172.923-.4 1.377-.685v2.643zm3.607-15.5c-2.32-1.175-4.978-1.77-7.966-1.77-4.598 0-7.84 1.2-9.728 3.593-1.186 1.533-1.853 3.486-2.008 5.866h6.866c.168-1.05.505-1.882 1.013-2.496.708-.83 1.912-1.247 3.614-1.247 1.52 0 2.67.208 3.456.637.783.423 1.177 1.193 1.177 2.306 0 .917-.51 1.588-1.533 2.023-.57.25-1.518.456-2.845.624l-2.435.297c-2.764.35-4.864.936-6.285 1.75-2.6 1.5-3.9 3.916-3.9 7.26 0 2.576.807 4.572 2.426 5.976 1.61 1.406 3.66 1.998 6.137 2.112 15.526.693 15.35-8.182 15.492-10.027v-10.215c0-3.275-1.162-5.505-3.48-6.69M102.673 114.46c1.774 0 3.078.546 3.92 1.642.576.81.937 1.724 1.077 2.738h7.66c-.42-3.864-1.773-6.56-4.056-8.09-2.29-1.52-5.22-2.287-8.808-2.287-4.22 0-7.532 1.297-9.924 3.88-2.4 2.592-3.598 6.21-3.598 10.86 0 4.12 1.085 7.476 3.255 10.064 2.17 2.587 5.555 3.88 10.157 3.88 4.604 0 8.082-1.55 10.424-4.652 1.472-1.923 2.293-3.963 2.468-6.12h-7.632c-.156 1.426-.6 2.59-1.34 3.484-.736.892-1.978 1.34-3.733 1.34-2.47 0-4.155-1.125-5.047-3.384-.49-1.205-.74-2.8-.74-4.786 0-2.082.25-3.753.74-5.014.927-2.37 2.656-3.557 5.177-3.557M86.89 108.463c-15.73 0-14.8 13.928-14.8 13.928v14.147h7.14V123.27c0-2.175.275-3.785.818-4.833.98-1.854 2.892-2.785 5.748-2.785.215 0 .498.01.846.027.35.017.744.046 1.197.1v-7.264c-.318-.02-.524-.03-.61-.04-.095-.007-.206-.013-.34-.013M51.072 115.855c1.004-1.03 2.414-1.547 4.232-1.547 1.675 0 3.077.483 4.21 1.46 1.126.974 1.757 2.405 1.886 4.282H49.183c.255-1.764.89-3.16 1.89-4.195zm9.596 13.29c-.3.428-.623.795-.976 1.08-1.01.83-2.38 1.083-3.993 1.083-1.525 0-2.718-.23-3.8-.913-1.78-1.093-2.783-2.946-2.89-5.666H68.76c.028-2.34-.048-4.133-.237-5.382-.33-2.123-1.05-3.997-2.16-5.606-1.23-1.828-2.797-3.165-4.685-4.014-1.892-.843-4.016-1.268-6.376-1.268-3.977 0-7.206 1.255-9.697 3.758-2.49 2.51-3.74 6.11-3.74 10.806 0 5.015 1.38 8.633 4.142 10.856 2.755 2.224 5.942 3.338 9.55 3.338 4.37 0 7.774-1.318 10.203-3.957 1.31-1.386 2.13-2.76 2.475-4.115h-7.57M39 136.536h-6.52v-16.42c0-1.5-.495-5.067-4.796-5.067-2.868 0-4.943 2.067-4.943 5.067v16.42h-6.527v-16.42c0-1.5-.445-5.068-4.744-5.068-2.92 0-4.945 2.067-4.945 5.067v16.42H0v-16.264c0-6.778 4.498-11.905 11.47-11.905 3.46 0 6.276 1.453 8.107 3.783 1.925-2.33 4.792-3.782 8.107-3.782 7.118 0 11.317 4.918 11.317 11.905v16.263M161.6 129.05c-1.042 1.493-2.574 2.24-4.576 2.24-2.01 0-3.506-.753-4.492-2.253-.985-1.5-1.478-3.69-1.478-6.193 0-2.323.482-4.267 1.454-5.833.968-1.566 2.49-2.35 4.564-2.35 1.36 0 2.554.43 3.584 1.29 1.675 1.43 2.512 3.988 2.512 7.303 0 2.372-.524 4.305-1.57 5.797zm8.563-29.16s-7.19-.77-7.19 5.006l-.007 7.647c-.795-1.277-1.83-2.277-3.108-2.996-1.274-.72-2.733-1.084-4.38-1.084-3.568 0-6.41 1.327-8.544 3.98-2.133 2.656-3.194 6.482-3.194 11.108 0 4.014 1.08 7.306 3.245 9.868 2.165 2.56 6.41 3.683 10.18 3.683 13.144 0 12.992-11.27 12.992-11.27l.006-25.94" fill="#2a3c8e"/><path d="M63.934 160.347c0-2.698-.523-4.77-1.58-6.224-1.05-1.447-2.556-2.178-4.518-2.178-1.89 0-3.364.73-4.42 2.178-.977 1.316-1.465 3.394-1.465 6.224 0 2.634.524 4.597 1.577 5.912 1.047 1.452 2.558 2.178 4.518 2.178 1.82 0 3.258-.726 4.31-2.18 1.056-1.45 1.58-3.415 1.58-5.91M51.95 179.692c0 .97-.35 1.8-1.055 2.49-.697.69-1.538 1.037-2.522 1.037h-3.57v-24.848c0-4.83 1.628-7.857 4.31-9.904 1.77-1.35 4.41-2.642 9.354-2.642 3.338 0 7.248 1.297 9.36 3.87 2.37 2.898 3.356 6.124 3.356 10.34 0 4.358-1.05 7.876-3.15 10.58-2.103 2.63-4.802 3.94-8.097 3.94-1.75 0-3.29-.31-4.622-.93-1.405-.694-2.522-1.765-3.363-3.22v9.287M106.792 160.35c0 4.765 1.377 7.408 4.132 7.93 2.748.51 4.782-.13 6.09-1.922.62-.755 1.065-1.952 1.34-3.57.274-1.624.295-3.232.052-4.82-.237-1.593-.806-3.01-1.703-4.254-.892-1.24-2.2-1.866-3.924-1.866-2.34 0-3.92.867-4.748 2.59-.83 1.73-1.24 3.7-1.24 5.913m11.77 11.914v-1.755c-1.237 1.937-2.91 3.138-5.007 3.625-2.1.478-4.184.31-6.242-.522-2.07-.827-3.843-2.364-5.324-4.61-1.478-2.25-2.217-5.203-2.217-8.866 0-4.278.98-7.753 2.94-10.412 1.963-2.66 5.113-3.873 9.45-3.99 4.272-.113 6.756.852 9.187 2.694 2.66 2.02 4.232 5.116 4.232 9.948v14.62c.01 4.648-3.233 13.27-13.42 12.537-6.312-.456-9.814-3.044-11.77-8.913h7.537c.55.967 1.39 1.71 2.533 2.224 1.13.522 2.27.658 3.398.416 1.137-.24 2.17-.916 3.105-2.02.926-1.105 1.458-2.765 1.597-4.978M90.043 163.234c-.045 2.383-.728 4.02-2.04 4.922-1.308.9-2.743 1.35-4.296 1.35-.985 0-1.818-.273-2.502-.81-.688-.543-1.03-1.425-1.03-2.64 0-1.363.56-2.374 1.682-3.025.67-.38 1.756-.708 3.277-.97l1.622-.3c.812-.155 1.448-.317 1.908-.493.47-.17.925-.398 1.38-.685v2.652zm3.613-15.528c-2.324-1.175-4.987-1.773-7.977-1.773-4.607 0-7.852 1.203-9.746 3.6-1.186 1.534-1.856 3.49-2.01 5.875h6.88c.168-1.052.504-1.885 1.01-2.5.712-.833 1.917-1.25 3.62-1.25 1.527 0 2.676.21 3.463.64.782.423 1.178 1.194 1.178 2.31 0 .918-.51 1.59-1.537 2.026-.57.25-1.517.456-2.85.625l-2.437.296c-2.766.35-4.87.937-6.292 1.753-2.606 1.5-3.904 3.924-3.904 7.27 0 2.582.805 4.58 2.426 5.988 1.613 1.408 3.668 2 6.147 2.115 15.55.694 15.373-8.196 15.516-10.045v-10.23c0-3.283-1.16-5.516-3.487-6.702M146.947 166.433c-1.11 1.48-2.704 2.217-4.783 2.217-2.075 0-3.677-.738-4.796-2.217-1.124-1.472-1.683-3.573-1.683-6.293 0-2.718.56-4.813 1.683-6.28 1.12-1.47 2.72-2.2 4.796-2.2 2.08 0 3.672.73 4.783 2.2 1.112 1.467 1.668 3.562 1.668 6.28 0 2.72-.556 4.82-1.668 6.293m5.68-16.473c-2.292-2.873-5.774-4.307-10.442-4.307-4.663 0-8.144 1.434-10.438 4.307-2.294 2.87-3.44 6.264-3.44 10.18 0 3.986 1.146 7.387 3.44 10.223 2.294 2.823 5.775 4.244 10.438 4.244 4.668 0 8.15-1.42 10.443-4.244 2.292-2.836 3.436-6.237 3.436-10.223 0-3.916-1.144-7.31-3.436-10.18" fill="#00adef"/></svg>