<svg xmlns="http://www.w3.org/2000/svg" width="337.226" height="78.927" viewBox="0 0 337.22601 78.926998"><path d="M20.25 9.81v5.13H0V9.81h20.25zm27.99 61.468L23.76 6.03h6.12l24.48 65.248h-6.12zm51.026 3.15v4.5H54.27v-4.5h44.997zM123.028 5.22c-6.57 8.82-11.34 20.52-11.34 36.81 0 16.018 4.95 27.538 11.34 36.538h-6.21c-5.67-7.47-11.79-18.99-11.79-36.54.09-17.728 6.12-29.248 11.79-36.808h6.21zm14.76-.09c3.42 6.66 7.38 17.46 8.64 23.94l-6.03 1.98c-1.26-6.3-5.04-17.01-8.46-24.03l5.85-1.89zm67.408 1.08c-.27.81-1.17 1.17-2.34 1.17-9.45 31.77-24.21 51.208-52.378 63.537-.9-1.26-2.97-3.69-4.32-4.95 27.54-11.608 41.668-29.698 50.578-62.457l8.46 2.7zM166.316 0c2.07 7.47 4.32 18.63 4.77 25.56l-6.39.99c-.54-7.11-2.52-17.91-4.68-25.47l6.3-1.08zm47.612 78.567c6.39-8.91 11.34-20.61 11.34-36.81 0-16.108-4.86-27.628-11.34-36.538h6.12c5.76 7.38 11.79 18.9 11.79 36.626 0 17.64-6.03 29.068-11.79 36.72h-6.12zm68.758-4.14v4.5h-44.998v-4.5h44.998zm-.088-3.15L307.706 6.03h6.12l-25.2 65.248h-6.028zM337.226 9.81v5.13h-20.25V9.81h20.25z" fill="#fff"/></svg>