<?xml version="1.0" standalone="no"?>
<!DOCTYPE svg PUBLIC "-//W3C//DTD SVG 1.1//EN" "http://www.w3.org/Graphics/SVG/1.1/DTD/svg11.dtd" >
<svg xmlns="http://www.w3.org/2000/svg">
<metadata>Generated by IcoMoon</metadata>
<defs>
<font id="icons-wineobs" horiz-adv-x="512">
<font-face units-per-em="512" ascent="480" descent="-32" />
<missing-glyph horiz-adv-x="512" />
<glyph unicode="&#x20;" d="" horiz-adv-x="256" />
<glyph unicode="&#xe600;" d="M481.451 477.44h-450.902c-15.457 0-27.97-12.512-27.97-27.969v-450.921c0-15.457 12.512-27.989 27.97-27.989h242.757v196.307h-66.046v76.498h66.046v56.421c0 65.448 39.981 101.099 98.385 101.099 27.969 0 52.012-2.079 59.019-3.022v-68.394l-40.501-0.019c-31.781 0-37.903-15.111-37.903-37.267v-48.817h75.747l-9.856-76.498h-65.892v-196.307h129.145c15.457 0 27.969 12.531 27.969 27.989v450.921c0 15.457-12.512 27.969-27.969 27.969z" />
<glyph unicode="&#xe601;" d="M256 223.995c-47.999 0-86.876 38.889-86.876 86.899s38.877 86.942 86.876 86.942c48.010 0 86.899-38.932 86.899-86.942s-38.889-86.899-86.899-86.899zM256 477.44c-92.439 0-167.65-75.223-167.65-167.661 0-37.243 23.773-97.946 72.659-185.591 34.636-61.99 68.633-113.69 70.073-115.853l24.919-37.774 24.941 37.774c1.418 2.164 35.437 53.864 70.029 115.853 48.908 87.645 72.68 148.347 72.68 185.591 0 92.438-75.19 167.661-167.65 167.661z" />
<glyph unicode="&#xe602;" d="M504.429 359.834l-56.498 56.498c-6.676 6.685-17.514 6.685-24.207 0l-235.342-235.342-100.096 100.087c-6.676 6.685-17.522 6.685-24.207 0l-56.498-56.489c-6.694-6.694-6.694-17.531 0-24.225l168.689-168.689c3.338-3.347 7.738-5.021 12.113-5.021 4.392 0 8.766 1.673 12.103 5.021l303.944 303.952c3.214 3.205 5.012 7.562 5.012 12.103s-1.798 8.899-5.012 12.103z" />
<glyph unicode="&#xe603;" d="M509.44 381.214c-18.625-8.255-38.675-13.863-59.728-16.385 21.491 12.876 37.97 33.255 45.74 57.55-20.098-11.921-42.356-20.583-66.041-25.235-18.969 20.207-46.006 32.833-75.909 32.833-57.457 0-103.995-46.554-103.995-103.98 0-8.176 0.909-16.103 2.679-23.715-86.42 4.339-163.049 45.739-214.35 108.663-8.96-15.351-14.082-33.224-14.082-52.272 0-36.091 18.358-67.921 46.256-86.577-17.043 0.533-33.068 5.216-47.102 13.017-0.015-0.455-0.015-0.893-0.015-1.316 0-50.392 35.871-92.419 83.444-101.975-8.74-2.381-17.936-3.65-27.412-3.65-6.704 0-13.221 0.642-19.549 1.864 13.22-41.306 51.63-71.382 97.134-72.213-35.589-27.898-80.436-44.534-129.152-44.534-8.396 0-16.683 0.502-24.797 1.457 46.006-29.512 100.674-46.726 159.384-46.726 191.308 0 295.913 158.491 295.913 295.898 0 4.512-0.094 8.991-0.313 13.44 20.317 14.693 37.97 32.989 51.896 53.853z" />
<glyph unicode="&#xe604;" d="M256.474 323.741c-56.2 0-101.815-44.183-101.815-98.652 0-54.452 45.615-98.615 101.815-98.615 56.219 0 101.815 44.164 101.815 98.615 0 54.47-45.596 98.652-101.815 98.652zM452.161 263.076h-44.647c4.26-13.785 6.529-28.37 6.529-43.494 0-84.31-70.543-152.658-157.568-152.658-87.007 0-157.55 68.348-157.55 152.658 0 15.125 2.288 29.709 6.511 43.494h-46.563v-214.122c0-11.069 9.060-20.147 20.147-20.147h352.995c11.069 0 20.147 9.079 20.147 20.147v214.122zM371.796 421.11c-12.538 0-22.808-10.251-22.808-22.808v-54.619c0-12.557 10.269-22.808 22.808-22.808h57.298c12.538 0 22.826 10.25 22.826 22.808v54.619c0 12.557-10.288 22.808-22.826 22.808h-57.298zM67.615 477.44h376.769c35.774 0 65.055-29.281 65.055-65.036v-376.788c0-35.793-29.281-65.055-65.055-65.055h-376.769c-35.792 0-65.055 29.263-65.055 65.055v376.788c0 35.755 29.263 65.036 65.055 65.036z" />
<glyph unicode="&#xe605;" d="M196.055 220.44c-16.833 16.154-27.486 38.584-28.261 63.475-2.305 0.155-4.63 0.339-6.964 0.339h-63.088c-52.511 0-95.183-42.682-95.183-95.164v-77.15l0.164-1.201 5.317-1.675c40.193-12.533 76.037-18.314 107.212-20.135v23.292c0 51.117 34.129 94.351 80.802 108.219zM129.268 289.32c14.547 0 28.087 4.262 39.543 11.487 3.651 23.757 16.406 44.541 34.604 58.681 0.058 1.385 0.223 2.75 0.223 4.174 0 41.045-33.306 74.341-74.37 74.341-41.044 0-74.332-33.297-74.332-74.341s33.287-74.341 74.332-74.341zM414.238 284.255h-62.575c-0.678-25.016-11.361-47.591-28.28-63.814 46.671-13.869 80.791-57.103 80.791-108.219v-23.757c61.8 2.267 97.421 19.767 99.764 20.939l4.94 2.538h0.562v77.15c0 52.483-42.711 95.164-95.203 95.164zM291.268 207.531h-63.097c-52.473 0-95.193-42.711-95.193-95.193v-77.141l0.213-1.211 5.317-1.666c50.081-15.632 93.605-20.851 129.439-20.851 69.954 0 110.466 19.931 113.003 21.229l4.94 2.498h0.523v77.141c0.038 52.483-42.672 95.193-95.144 95.193zM259.714 212.606c41.084 0 74.341 33.258 74.341 74.332 0 41.044-33.258 74.313-74.341 74.313-41.054 0-74.351-33.267-74.351-74.341 0-41.044 33.297-74.303 74.351-74.303zM308.43 364.804c23.447-14.702 39.873-39.563 42.875-68.443 9.539-4.455 20.164-7.012 31.399-7.012 41.055 0 74.341 33.267 74.341 74.313 0 41.074-33.287 74.341-74.341 74.341-40.667 0-73.654-32.677-74.274-73.199z" />
<glyph unicode="&#xe606;" d="M119.281 241.31l7.924-36.289 39.636 18.959h0.605v-164.849h47.355v207.822h-40.612l-54.907-25.643zM367.61 180.447c-14.627 10.597-34.767 15.007-54.586 15.007-5.084 0-8.967-0.049-13.456-0.693l4.488 31.85h80.882v40.349h-114.733l-13.729-109.024c8.646 1.239 16.589 1.825 28.083 1.825 41.578 0 58.478-13.105 58.478-34.562 0-22.014-21.438-31.567-41.519-31.567-18.843 0-37.695 5.718-46.925 10.187l-8.645-36.435c11.504-6.040 32.562-11.817 57.835-11.817 55.893 0 89.099 34.182 89.099 72.832 0 24.297-9.563 41.519-25.273 52.048zM464.759 51.394c0-23.76-19.125-43.139-42.885-43.139h-331.639c-23.712 0-42.876 19.379-42.876 43.139v234.783c0 16.139 12.939 29 29.146 29h359.147c16.149 0 29.108-12.861 29.108-29v-234.783zM449.858 445.962v-25.322c0-25.546-20.96-46.711-46.496-46.711h-2.381c-25.536 0-46.76 21.165-46.76 46.711v28.718h-50.809v-28.718c0-25.546-21.224-46.711-46.76-46.711h-2.313c-25.605 0-46.574 21.165-46.574 46.711v28.718h-51.716v-28.718c0-25.546-20.52-46.711-46.066-46.711h-2.323c-25.585 0-46.321 21.165-46.321 46.711v24.951c-29.81-9.778-50.867-37.646-50.867-70.529v-330.527c0-41.041 33.148-73.974 74.189-73.974h342.773c41.051 0 74.091 32.933 74.091 73.974v330.527c0.049 33.303-21.877 61.494-51.668 70.901zM107.665 396.762h2.381c7.328 0 13.876 3.084 18.296 8.265 3.679 4.215 5.776 9.572 5.776 15.612v32.884c0 6.635-2.586 12.637-6.918 16.998-0.049 0.049-0.049 0.108-0.049 0.166-0.039 0-0.039-0.166-0.088-0.117-4.391 4.332-10.373 6.869-17.017 6.869h-2.381c-6.694 0-12.695-2.537-17.056-6.869 0-0.049-0.058 0-0.058 0-0.058-0.049-0.166-0.049-0.215-0.049-4.323-4.421-7.064-10.363-7.064-16.998v-32.884c0-6.040 2.323-11.397 5.913-15.612 4.498-5.182 11.133-8.265 18.481-8.265zM240.511 400.598l0.147-0.049c0.107-0.058 0.214 0.049 0.273 0.049 3.835-2.547 8.431-3.874 13.407-3.874h2.352c4.166 0 8.060 0.858 11.455 2.742 0.058 0 0.058-0.108 0.108-0.049 0.058 0.049-0.049 0.049 0.058 0.107 7.445 4.108 12.315 11.983 12.315 21.116v32.884c0 7.875-3.62 14.9-9.445 19.31-0.058 0.069 0 0.117-0.058 0.117l0.058-0.166c-4.050 3.025-9.026 4.606-14.49 4.606h-2.351c-6.274 0-12.002-2.176-16.267-6.108-0.059 0-0.059 0.108-0.059 0.108-0.049-0.049-0.273-0.049-0.313-0.108-4.81-4.43-8.001-10.685-8.001-17.759v-32.884c0-8.323 4.381-15.671 10.811-20.043zM400.981 396.762h2.381c7.338 0 14.041 3.084 18.52 8.265 3.678 4.215 6.050 9.572 6.050 15.612v32.884c0 9.173-5.24 17.106-12.743 21.272-0.058 0-0.175 0.049-0.214 0.049-0.605 0.322-1.249 0.595-1.844 0.917-0.117 0-0.264 0.049-0.313 0.108-0.175 0.058-0.322 0.107-0.498 0.166-0.205 0.117-0.43 0.214-0.644 0.263-0.108 0.059-0.214 0.059-0.38 0.117-0.214 0.108-0.478 0-0.761 0.108-2.264 0.702-4.693 0.917-7.172 0.917h-2.381c-1.239 0-2.322 0.049-3.503-0.107-11.671-1.776-20.413-11.661-20.413-23.809v-32.884c0-13.407 10.529-23.877 23.916-23.877z" />
<glyph unicode="&#xe607;" d="M453.642 125.583c-6.404 11.164-14.488 26.732-18.122 40.018-5.221 19.286-17.831 0.639-18.873-11.934-1.051-12.61-9.446-22.056-26.243-3.173-16.826 18.92-19.962 14.714-25.23 14.714-5.23 0-14.666-12.62-12.582-71.397 1.483-41.981 18.056-48.637 28.882-51.67-20.113-13.812-43.182-24.704-69.106-31.286-99.022-25.135-200.127 20.507-247.375 111.2-43.971 84.495-22.544 180.118 22.188 232.746 1.202-9.474 2.376-17.99 3.352-26.516 2.676-23.314 0.676-46.29-4.094-69.209-1.014-4.892-0.648-10.451 0.648-15.249 0.733-2.619 4.676-5.727 7.418-5.971 2.141-0.207 5.906 3.192 6.76 5.756 1.568 4.582 1.634 9.718 2.112 14.638 0.338 3.474 0.376 6.986 0.601 12.431 3.568-2.892 6.141-4.619 8.3-6.798 5.502-5.54 11.032-11.014 16.056-16.958 2.216-2.629 4.488-6.328 4.423-9.502-0.15-6.798 2.835-11.408 6.498-16.76 4.028-5.906 5.84-13.38 8.451-20.235 1.080-2.901 1.324-6.122 2.611-8.892 2.78-5.943 6.967-10 14.16-10.432 7.596-0.488 10.423-3.446 11.502-11.192-1.934-0.216-3.869-0.469-5.774-0.648-9.268-0.864-13.85-5.136-13.474-14.46 0.732-18.516 7.409-34.666 21.136-47.52 3.774-3.568 7.812-6.863 11.493-10.488 8.404-8.319 11.323-18.056 7.296-29.502-1.944-5.474-4.582-10.826-5.446-16.488-0.864-5.747-0.892-11.962 0.46-17.596 1.381-5.84 0.77-18.601 6.798-17.567 10.704 1.887 16.816-0.235 17.652 11.728 0.16 2.281 0 2.554-0.611 4.666-3.173 11.202 11.23 43.079 19.868 48.882 7.417 4.957 14.798 10.038 21.502 15.877 9.652 8.366 13.99 19.211 9.934 31.839-3.812 11.868 0.648 20.61 8.957 28.262 8.45 7.784 14.019 16.76 13.437 28.76s-8.432 20.675-18.675 19.436c-4.976-0.611-9.774-3.014-14.666-4.639-7.136-2.413-14.113-5.784-21.446-7.108-10.3-1.812-16.638 4.892-21.22 13.042-3.69 6.554-4.882 7.070-11.315 2.986-5.389-3.455-10.798-6.948-16.404-10.056-5.812-3.267-8.976-2.065-13.436 2.798-2.676 2.854-6.338 4.882-9.746 6.948-2.47 1.512-5.765 1.906-7.737 3.812-2.629 2.526-6.291 6.31-5.916 9.079 0.423 3.23 4.169 7.286 7.464 8.638 5.633 2.272 12.056 2.638 18.084 3.963 3.23 0.685 6.525 1.418 9.578 2.619 4.141 1.662 3.99 4.404 0.788 6.986-1.596 1.258-3.53 2.15-5.409 2.92-9.23 3.718-18.516 7.258-27.746 10.986-2.31 0.92-4.554 2.047-6.619 3.409-5.784 3.803-6.488 8-1.22 12.647 20.76 18.328 45.023 23.68 66.534-0.648 6.638-7.531 11.155-16.958 17.436-24.854 4.948-6.254 10.648-12.094 16.948-16.92 2.582-1.972 8.394-2.3 11.323-0.704 4.301 2.338 4.451 7.746 2.273 12.244-1.878 3.869-4.103 7.718-6.732 11.126-12.225 15.755-11.362 46.422 12.544 59.21 8 4.281 16.084 8.779 19.897 20.281-4.582-1.239-7.906-2.037-11.154-3.051-18.16-5.596-5.512 7.944 2.817 10.3 5.079 1.456-4.545 5.324-4.545 5.324 0.235 0.404 6.394 2.15 13.248 5.079 4.714 2 9.539 4.244 13.445 7.437 2.517 2.103 3.512 6.065 5.173 9.201-0.432 0.46-0.836 0.958-1.267 1.446-4.798-0.648-9.596-1.352-14.385-1.906-8.159-0.901-10.065 0.704-10.836 8.92-0.517 5.596-6.244 8.676-11.596 5.784-3.596-1.944-6.741-4.808-10.216-7.042-8.028-5.202-14.018-3.099-17.192 5.84-1.878 5.352-4.488 6.366-9.38 3.352-2.488-1.474-4.554-3.69-7.052-5.070-4.113-2.31-8.3-4.62-12.722-6.188-4.31-1.54-9.512-2.648-12.431 2.094-3.173 5.070-0.404 10.019 3.568 13.229 4.929 3.963 10.61 7.005 16.178 10.15 7.906 4.423 16.3 8.15 23.934 13.005 5.596 3.568 8.056 9.408 6.244 16.272-1.53 5.822-5.417 7.793-10.798 5.108-4.432-2.178-8.328-5.625-12.892-7.418-3.352-1.296-7.502-1.296-11.061-0.666-1.333 0.244-2.742 3.906-2.78 6.028-0.028 1.22 2.46 3.352 4.028 3.624 11.042 1.728 22.159 3.164 33.248 4.432 1.456 0.15 3.672-0.742 4.591-1.916 7.314-9.248 17.568-13.746 28.328-16.938 9.042-2.714 10.338-1.418 11.596 8.056 11.596 2.742 23.408 8.122 35.098 0.77 6.488-4.084 12.394-9.296 17.897-14.666 1.361-1.361 0.526-5.483-0.122-8.159-0.854-3.596-2.854-6.92-3.784-10.488-1.747-6.977 2.741-12.404 9.906-12.31 2.281 0.075 4.554 0.526 6.826 0.648 6.648 0.31 8.986-2.244 8.375-8.92-0.836-9.502 0.733-10.639 10.338-9.033 2.733 0.46 5.925-0.779 8.723-1.765 1.671-0.611 2.995-2.207 4.469-3.324 8.92-6.76 15.718-4.207 18.329 6.836 0.272 1.202 0.244 2.498 0.498 3.69 1.042 4.948 3.841 6.244 7.192 2.704 7.070-7.502 13.718-15.408 20.92-23.587-7.718-7.108-8-15.718-6.272-24.149 1.906-9.38-0.591-17.567-4.281-25.802-3.531-7.943-7.437-15.812-9.812-24.121-3.54-12.423 0.469-18.113 13.099-20.854 12.065-2.648 14.038-5.071 14.488-16.854 0.62-16.084 8.863-27.154 22.986-34.262 3.136-1.54 6.46-2.741 9.652-4.056-1.596-24.798-8.676-50.609-20.76-75.060zM507.012 255.27c-4.676 42.534-20.328 81.416-45.651 116.044-40.807 55.764-95.35 89.848-163.48 101.726-13.596 2.366-27.474 2.986-41.22 4.404h-2.742c-12.826-1.418-25.746-2.338-38.506-4.31-130.974-20.094-225.676-144.11-210.709-276.069 7.136-63.003 33.539-116.692 80.346-159.546 55.717-50.938 121.847-72.778 196.832-65.642 57.558 5.474 107.791 28.704 149.19 69.209 60.13 58.834 85.106 130.823 75.942 214.183z" />
<glyph unicode="&#xe608;" d="M255.771 477.44l-225.832-118.149v-257.692l225.832-131.035 226.289 135.491v253.236l-226.289 118.149z" />
<glyph unicode="&#xe609;" d="M255.771 235.857v-265.298l226.289 135.491v253.236l-226.289-123.429z" />
<glyph unicode="&#xe60a;" d="M117.559 311.394l138.209-75.534 138.471 75.534-138.47 71.235-138.209-71.235z" />
<glyph unicode="&#xe60b;" d="M259.548 229.489l134.642 74.044v-142.757l-134.642-77.665v146.377z" />
<glyph unicode="&#xe60c;" d="M252.044 229.489l-134.589 74.044 0.105-142.757 134.485-77.665v146.377z" />
<glyph unicode="&#xe60d;" d="M1496.947 195.237c-5.53-26.459-26.556-37.949-52.057-39.101-22.179-1.153-42.13 18.407-27.709 41.407 11.099 19.522 42.091 24.133 60.948 24.133h24.387c-2.208-9.184-3.361-17.255-5.569-26.439zM1490.303 397.563c-47.621 0-85.296-12.643-114.119-18.407l-8.891-72.418c14.44 6.917 59.853 19.541 97.548 20.694 37.675 1.153 59.814-6.879 52.057-39.082-111.891 0-187.28-22.98-202.795-95.418-22.179-124.163 114.177-120.724 168.461-66.673l-6.644-29.897h99.717l43.244 197.734c17.704 83.928-58.74 104.602-128.579 103.469zM1704.225 475.755l-82.56-379.405h101.339l83.537 379.405h-102.316zM1235.397 345.838c-6.683-28.764-35.564-51.744-63.313-51.744h-50.005l22.257 103.45h53.268c27.787 0 44.436-22.98 37.792-51.705zM1238.719 474.593h-185.482l-82.208-378.233h107.728l27.787 125.315h76.639c75.525 0 137.744 45.979 154.412 124.162 18.857 88.501-45.57 128.755-98.877 128.755zM526.583 195.237c-5.491-26.459-27.397-37.949-52.584-39.101-21.886-1.153-40.508 18.407-26.263 41.407 10.943 19.522 41.603 24.133 59.111 24.133h25.188c-2.169-9.184-4.377-17.255-5.452-26.439zM518.904 397.563c-47.055 0-84.299-12.643-111.656-18.407l-8.793-72.418c13.132 6.917 58.056 19.541 95.262 20.694 37.264 1.153 59.13-6.879 52.565-39.082-110.562 0-185.033-22.98-200.372-95.418-21.866-124.163 112.771-120.724 165.335-66.673l-6.565-29.897h99.619l42.697 197.734c17.528 83.928-59.111 104.602-128.091 103.469zM690.39 392.115h99.62l16.063-176.142 97.47 176.142h102.824l-236.698-421.555h-111.422l72.829 123.947-40.684 297.607zM267.783 345.838c-6.683-28.764-34.509-51.744-62.355-51.744h-51.216l23.391 103.45h53.424c26.751 0 44.533-22.98 36.756-51.705zM271.144 474.593h-185.99l-82.404-378.233h109.155l26.732 125.315h77.929c74.607 0 136.982 45.979 153.689 124.162 18.896 88.501-44.534 128.755-99.111 128.755zM1828.417 426.692v44.749h-16.688v5.999h40.196v-5.999h-16.785v-44.749h-6.722zM1858.569 426.692v50.748h10.083l12.017-35.897c1.094-3.341 1.915-5.842 2.403-7.503 0.606 1.837 1.485 4.533 2.716 8.129l12.174 35.271h9.047v-50.748h-6.468v42.482l-14.793-42.482h-6.038l-14.695 43.166v-43.166h-6.448z" horiz-adv-x="1910" />
<glyph unicode="&#xe60e;" d="M1139.031 305.158c-6.555-8.715-15.944-13.080-28.243-13.080-12.237 0-21.657 4.365-28.289 13.080-6.617 8.714-9.94 21.106-9.94 37.171 0 16.036 3.323 28.411 9.94 37.095 6.632 8.638 16.051 12.973 28.289 12.973 12.299 0 21.688-4.334 28.243-12.973 6.586-8.684 9.879-21.059 9.879-37.095 0-16.066-3.293-28.457-9.879-37.171zM1172.588 402.428c-13.539 16.954-34.063 25.425-61.647 25.425-27.553 0-48.076-8.469-61.585-25.425-13.554-16.954-20.355-36.972-20.355-60.099 0-23.525 6.8-43.62 20.355-60.36 13.508-16.695 34.032-25.041 61.585-25.041 27.584 0 48.107 8.347 61.647 25.041 13.524 16.74 20.293 36.834 20.293 60.36 0 23.127-6.77 43.145-20.293 60.099zM805.433 324.946c-0.322-14.060-4.335-23.755-12.053-29.070-7.78-5.299-16.22-7.964-25.394-7.964-5.836 0-10.736 1.608-14.78 4.809s-6.081 8.378-6.081 15.561c0 8.056 3.323 14.014 9.94 17.858 3.921 2.252 10.354 4.181 19.344 5.713l9.572 1.792c4.794 0.904 8.562 1.853 11.288 2.91 2.741 1.011 5.437 2.328 8.163 4.028v-15.637zM826.737 416.596c-13.739 6.969-29.467 10.476-47.127 10.476-27.186 0-46.361-7.106-57.511-21.243-7-9.083-10.951-20.615-11.855-34.69h40.602c0.949 6.218 2.956 11.119 5.973 14.749 4.166 4.931 11.303 7.397 21.396 7.397 8.944 0 15.76-1.24 20.4-3.783 4.625-2.512 6.968-7.060 6.968-13.646 0-5.407-3.017-9.389-9.067-11.962-3.385-1.471-8.975-2.696-16.817-3.676l-14.412-1.761c-16.342-2.067-28.748-5.529-37.157-10.354-15.346-8.852-23.066-23.157-23.066-42.93 0-15.224 4.794-27.017 14.366-35.334 9.511-8.316 21.626-11.809 36.252-12.483 91.834-4.089 90.793 48.383 91.62 59.303v60.391c0 19.359-6.877 32.546-20.569 39.546zM617.394 391.084c10.506 0 18.211-3.231 23.188-9.726 3.4-4.778 5.529-10.169 6.371-16.173h45.289c-2.481 22.851-10.476 38.795-23.97 47.832-13.539 8.99-30.861 13.508-52.105 13.508-24.949 0-44.538-7.658-58.66-22.943-14.183-15.316-21.274-36.697-21.274-64.204 0-24.368 6.402-44.202 19.236-59.487 12.835-15.316 32.883-22.974 60.069-22.974 27.216 0 47.801 9.19 61.646 27.523 8.684 11.364 13.524 23.418 14.566 36.161h-45.136c-0.889-8.393-3.553-15.285-7.888-20.569-4.38-5.269-11.732-7.949-22.086-7.949-14.626 0-24.552 6.662-29.851 20.033-2.91 7.122-4.365 16.572-4.365 28.288 0 12.298 1.455 22.192 4.365 29.651 5.468 13.999 15.699 21.029 30.601 21.029zM524.094 426.533c-92.998 0-87.53-82.354-87.53-82.354v-83.64h42.211v78.463c0 12.835 1.639 22.377 4.84 28.549 5.805 10.966 17.154 16.48 34.017 16.48 1.287 0 2.941-0.062 4.993-0.168 2.037-0.077 4.395-0.291 7.061-0.582v42.945c-1.884 0.123-3.078 0.153-3.584 0.214-0.567 0.062-1.194 0.092-2.006 0.092zM312.303 382.829c5.927 6.095 14.274 9.159 25.011 9.159 9.925 0 18.211-2.88 24.919-8.654 6.632-5.743 10.384-14.213 11.12-25.302h-72.229c1.517 10.445 5.253 18.7 11.18 24.796zM369.017 304.243c-1.731-2.512-3.645-4.686-5.743-6.372-5.958-4.901-14.060-6.433-23.601-6.433-9.036 0-16.067 1.379-22.499 5.422-10.522 6.464-16.418 17.429-17.077 33.496h116.814c0.153 13.83-0.276 24.444-1.409 31.827-1.945 12.543-6.218 23.633-12.774 33.128-7.26 10.813-16.541 18.716-27.691 23.739-11.196 4.993-23.755 7.49-37.723 7.49-23.51 0-42.594-7.398-57.312-22.208-14.719-14.826-22.147-36.13-22.147-63.898 0-29.636 8.194-51.032 24.505-64.189 16.265-13.125 35.15-19.727 56.469-19.727 25.853 0 45.947 7.796 60.344 23.402 7.75 8.194 12.589 16.311 14.627 24.322h-44.784zM240.929 260.541h-38.566v97.103c0 8.852-2.925 29.942-28.35 29.942-16.97 0-29.222-12.238-29.222-29.942v-97.103h-38.596v97.103c0 8.852-2.635 29.942-28.058 29.942-17.261 0-29.254-12.238-29.254-29.942v-97.103h-38.566v96.168c0 40.082 26.603 70.392 67.819 70.392 20.462 0 37.126-8.592 47.954-22.377 11.364 13.784 28.334 22.377 47.923 22.377 42.088 0 66.915-29.070 66.915-70.392v-96.168zM965.83 304.813c-6.157-8.822-15.224-13.248-27.078-13.248-11.87 0-20.722 4.457-26.527 13.325-5.836 8.868-8.76 21.825-8.76 36.62 0 13.738 2.864 25.225 8.607 34.491 5.713 9.251 14.718 13.907 26.986 13.907 8.041 0 15.101-2.558 21.182-7.658 9.924-8.423 14.856-23.556 14.856-43.16 0-14.030-3.109-25.455-9.266-34.277zM1016.479 477.238c0 0-42.548 4.549-42.548-29.606l-0.030-45.212c-4.687 7.536-10.828 13.463-18.364 17.705s-16.158 6.402-25.899 6.402c-21.090 0-37.907-7.827-50.496-23.541-12.62-15.668-18.915-38.32-18.915-65.659 0-23.725 6.371-43.19 19.206-58.353 12.774-15.132 37.876-21.779 60.192-21.779 77.682 0 76.793 66.639 76.793 66.639l0.062 153.404zM388.374 119.736c0 15.974-3.14 28.243-9.358 36.82-6.203 8.562-15.117 12.88-26.711 12.88-11.196 0-19.926-4.319-26.129-12.88-5.759-7.781-8.669-20.064-8.669-36.82 0-15.561 3.109-27.155 9.296-34.935 6.203-8.592 15.147-12.88 26.726-12.88 10.798 0 19.283 4.288 25.486 12.88 6.218 8.577 9.358 20.187 9.358 34.935zM317.507 5.373c0-5.743-2.067-10.644-6.249-14.719-4.104-4.089-9.098-6.127-14.902-6.127h-21.12v146.91c0 28.564 9.634 46.453 25.455 58.568 10.507 7.979 26.098 15.607 55.351 15.607 19.712 0 42.839-7.658 55.305-22.882 14.029-17.139 19.895-36.207 19.895-61.141 0-25.762-6.249-46.575-18.639-62.565-12.437-15.546-28.411-23.296-47.862-23.296-10.384 0-19.497 1.838-27.37 5.514-8.286 4.104-14.872 10.445-19.865 19.022v-54.892zM641.774 119.736c0-28.181 8.133-43.803 24.413-46.882 16.235-3.017 28.258 0.75 36.008 11.38 3.66 4.457 6.31 11.548 7.933 21.090 1.608 9.603 1.731 19.114 0.291 28.503-1.394 9.42-4.748 17.797-10.047 25.164-5.299 7.321-13.003 11.027-23.203 11.027-13.83 0-23.158-5.146-28.058-15.316-4.917-10.231-7.337-21.887-7.337-34.966zM711.354 49.283v10.384c-7.337-11.457-17.169-18.548-29.59-21.442-12.437-2.818-24.766-1.792-36.911 3.109-12.237 4.87-22.729 13.938-31.49 27.247-8.715 13.31-13.111 30.755-13.111 52.411 0 25.302 5.804 45.856 17.414 61.57 11.61 15.729 30.203 22.913 55.841 23.601 25.287 0.659 39.944-5.054 54.356-15.944 15.699-11.947 24.98-30.249 24.98-58.813v-86.458c0.092-27.492-19.083-78.463-79.336-74.129-37.325 2.695-58.032 18.012-69.58 52.717h44.538c3.263-5.713 8.24-10.108 14.994-13.171 6.708-3.079 13.432-3.875 20.11-2.45 6.693 1.409 12.819 5.422 18.333 11.947 5.499 6.54 8.607 16.358 9.45 29.422zM542.729 102.685c-0.245-14.091-4.304-23.786-12.053-29.1-7.719-5.33-16.22-7.995-25.394-7.995-5.836 0-10.767 1.623-14.81 4.825-4.074 3.201-6.111 8.393-6.111 15.576 0 8.087 3.354 14.029 9.971 17.889 3.952 2.282 10.415 4.197 19.359 5.743l9.619 1.792c4.794 0.889 8.531 1.853 11.257 2.91 2.772 0.995 5.468 2.328 8.163 4.028v-15.668zM564.095 194.488c-13.739 6.954-29.467 10.491-47.188 10.491-27.216 0-46.423-7.106-57.603-21.289-7-9.067-10.951-20.63-11.885-34.736h40.694c0.98 6.233 2.986 11.15 5.973 14.78 4.197 4.947 11.334 7.397 21.366 7.397 9.067 0 15.852-1.226 20.524-3.767 4.595-2.512 6.938-7.060 6.938-13.677 0-5.406-3.033-9.389-9.097-11.962-3.354-1.501-8.944-2.695-16.817-3.707l-14.412-1.776c-16.358-2.053-28.809-5.529-37.218-10.338-15.438-8.883-23.096-23.219-23.096-43.022 0-15.255 4.763-27.063 14.366-35.395 9.511-8.301 21.688-11.808 36.344-12.498 91.926-4.089 90.884 48.459 91.711 59.38v60.513c0 19.421-6.877 32.608-20.6 39.607zM879.2 83.781c-6.586-8.76-16.005-13.095-28.273-13.095-12.284 0-21.749 4.334-28.38 13.095-6.647 8.7-9.94 21.12-9.94 37.187 0 16.097 3.293 28.472 9.94 37.156 6.632 8.7 16.097 13.003 28.38 13.003 12.268 0 21.688-4.304 28.273-13.003 6.586-8.684 9.879-21.060 9.879-37.156 0-16.067-3.293-28.488-9.879-37.187zM912.757 181.144c-13.509 17.016-34.124 25.486-61.738 25.486-27.553 0-48.122-8.469-61.707-25.486-13.554-16.924-20.34-37.003-20.34-60.176 0-23.541 6.785-43.681 20.34-60.437 13.585-16.679 34.154-25.087 61.707-25.087 27.615 0 48.23 8.409 61.738 25.087 13.585 16.755 20.355 36.896 20.355 60.437 0 23.173-6.769 43.252-20.355 60.176z" horiz-adv-x="1203" />
<glyph unicode="&#xe60f;" d="M255.394 302.521c-19.040 0-31.645 13.575-31.292 30.235-0.352 17.409 12.252 30.455 31.733 30.455 19.436 0 31.689-13.046 32.086-30.455 0-16.66-12.649-30.235-32.526-30.235zM289.067 113.839c0-18.247-14.765-33.099-33.055-33.099-18.246 0-33.055 14.853-33.055 33.099v132.267c0 18.246 14.809 33.055 33.055 33.055 18.291 0 33.055-14.809 33.055-33.055v-132.267zM435.216 403.231c-98.903 98.947-259.464 98.947-358.411 0-98.99-98.99-98.99-259.509 0-358.411 98.947-98.991 259.509-99.035 358.411 0 99.034 98.902 98.947 259.421 0 358.411z" />
<glyph unicode="&#xe610;" d="M372.74 356.974c0.317-1.405-0.212-2.493-0.589-2.84-0.257-0.226-2.024-1.827-2.024-1.827-36.796-33.368-63.005-31.208-81.72-25.604-14.834 4.441-29.214 12.885-44.44 21.812-16.797 9.849-34.153 20.045-54.001 25.981-14.26 4.29-28.172 5.846-42.31 4.758-0.665-0.061-1.798 0.392-1.284 2.084 9.199 32.462 20.014 57.853 27.054 68.85 0.257 0.453 0.408 1.073 2.145 1.209l162.352-1.51c2.432 0.046 2.659-0.921 2.945-1.435 7.719-14.139 22.945-57.219 31.873-91.478zM355.172-11.385c0.060 7.039-2.659 16.253-15.966 20.257-5.77 1.707-12.16 2.13-17.794 2.493-2.25 0.151-4.38 0.272-6.178 0.483l-0.635 0.075c-8.565 0.966-16.631 2.553-23.322 4.546-8.716 2.628-12.296 5.075-13.066 5.876-1.209 3.776-3.913 25.317-3.534 85.632 0.197 34.651 1.36 64.757 2.462 78.684 33.972 7.885 68.82 26.284 89.651 47.552 28.187 28.685 41.661 62.959 37.99 96.539-1.632 14.939-10.377 47.974-21.238 80.345-5.453 16.238-10.77 30.151-15.317 40.271-5.861 12.976-11.057 21.495-18.806 23.806-1.344 0.393-2.764 0.604-4.214 0.635l-175.57 1.632c-10.045 0.091-16.223-8.731-23.474-24.002-4.728-10.015-10.302-23.806-16.042-39.984-11.48-32.175-20.831-65.029-22.733-79.923-8.776-68.261 60.663-131.582 126.371-147.020 0.619-14.35 0.846-44.409 0.181-78.034-1.254-60.542-4.487-81.962-5.695-85.557-1.888-2.009-13.308-7.628-36.645-9.864l-0.649-0.060c-1.768-0.166-3.912-0.272-6.148-0.377-12.734-0.574-34.002-1.526-34.198-22.114-0.076-7.855 10.090-10.906 13.927-12.054 36.645-10.981 167.624-10.966 186.581 3.006 3.323 2.447 4.033 5.241 4.063 7.16z" />
<glyph unicode="&#xe611;" d="M2.56 336.626h506.88v56.374h-506.88v-56.374zM2.56 195.821h506.88v56.374h-506.88v-56.374zM2.56 55h506.88v56.374h-506.88v-56.374z" />
<glyph unicode="&#xe612;" d="M492.313 377.592l-153.565-153.588 153.565-153.611c22.844-22.844 22.844-59.891 0-82.735-11.399-11.445-26.383-17.099-41.344-17.099-14.938 0-29.945 5.654-41.391 17.099l-153.588 153.657-153.565-153.657c-11.445-11.445-26.429-17.099-41.391-17.099-14.984 0-29.922 5.654-41.322 17.099-22.867 22.844-22.867 59.891 0 82.735l153.542 153.611-153.588 153.588c-22.821 22.89-22.821 59.891 0 82.735 22.844 22.844 59.868 22.844 82.712 0l153.611-153.611 153.588 153.611c22.867 22.844 59.891 22.844 82.735 0s22.844-59.845 0-82.735z" />
<glyph unicode="&#xe613;" d="M461.307 88.128l-110.51 114.351c-1.196 1.25-3.171 1.377-4.495 0.2l-76.621-67.415-97.951 120.531c-0.635 0.833-1.541 1.25-2.573 1.25-1.033-0.072-1.957-0.562-2.591-1.341l-115.838-155.417v275.404h410.578v-287.564zM501.448 423.916h-490.86c-4.422 0-8.028-3.606-8.028-8.046v-383.776c0-4.404 3.607-8.010 8.028-8.010h490.86c4.385 0 7.992 3.606 7.992 8.010v383.776c0 4.44-3.606 8.046-7.992 8.046zM339.973 259.706c21.728 0 39.398 17.633 39.398 39.434 0 21.692-17.669 39.398-39.398 39.398s-39.398-17.706-39.398-39.398c0-21.801 17.669-39.434 39.398-39.434z" />
</font>
</defs>
</svg>
